<svg width="131" height="18" viewBox="0 0 131 18" fill="none" xmlns="http://www.w3.org/2000/svg">
<path d="M124.996 17.568C123.876 17.568 122.876 17.304 121.996 16.776C121.116 16.248 120.428 15.512 119.932 14.568C119.436 13.608 119.188 12.496 119.188 11.232C119.188 9.952 119.428 8.84 119.908 7.896C120.404 6.952 121.092 6.216 121.972 5.688C122.868 5.16 123.892 4.896 125.044 4.896C126.228 4.896 127.236 5.16 128.068 5.688C128.9 6.216 129.532 6.912 129.964 7.776C130.412 8.624 130.636 9.56 130.636 10.584C130.636 10.744 130.636 10.912 130.636 11.088C130.636 11.264 130.628 11.464 130.612 11.688H120.7V10.128H128.644C128.596 9.024 128.228 8.16 127.54 7.536C126.868 6.912 126.02 6.6 124.996 6.6C124.324 6.6 123.692 6.76 123.1 7.08C122.508 7.384 122.036 7.84 121.684 8.448C121.332 9.04 121.156 9.784 121.156 10.68V11.352C121.156 12.344 121.332 13.176 121.684 13.848C122.052 14.52 122.524 15.024 123.1 15.36C123.692 15.696 124.324 15.864 124.996 15.864C125.844 15.864 126.54 15.68 127.084 15.312C127.644 14.928 128.052 14.408 128.308 13.752H130.3C130.092 14.488 129.748 15.144 129.268 15.72C128.788 16.28 128.188 16.728 127.468 17.064C126.764 17.4 125.94 17.568 124.996 17.568Z" fill="white"/>
<path d="M98.3175 17.28V5.184H100.142L100.262 6.912C100.646 6.288 101.158 5.8 101.798 5.448C102.454 5.08 103.166 4.896 103.934 4.896C104.558 4.896 105.118 4.984 105.614 5.16C106.126 5.32 106.574 5.576 106.958 5.928C107.358 6.264 107.67 6.696 107.894 7.224C108.31 6.488 108.886 5.92 109.622 5.52C110.358 5.104 111.134 4.896 111.95 4.896C112.894 4.896 113.71 5.088 114.398 5.472C115.086 5.84 115.622 6.408 116.006 7.176C116.39 7.928 116.582 8.888 116.582 10.056V17.28H114.59V10.272C114.59 9.056 114.342 8.144 113.846 7.536C113.35 6.928 112.646 6.624 111.734 6.624C111.11 6.624 110.55 6.792 110.054 7.128C109.558 7.448 109.166 7.92 108.878 8.544C108.59 9.168 108.446 9.936 108.446 10.848V17.28H106.43V10.272C106.43 9.056 106.182 8.144 105.686 7.536C105.19 6.928 104.494 6.624 103.598 6.624C102.99 6.624 102.438 6.792 101.942 7.128C101.446 7.448 101.054 7.92 100.766 8.544C100.478 9.168 100.334 9.936 100.334 10.848V17.28H98.3175Z" fill="white"/>
<path d="M89.1988 17.568C88.2228 17.568 87.4068 17.4 86.7508 17.064C86.0948 16.712 85.6068 16.256 85.2868 15.696C84.9668 15.12 84.8068 14.496 84.8068 13.824C84.8068 13.008 85.0148 12.32 85.4308 11.76C85.8628 11.184 86.4628 10.752 87.2308 10.464C88.0148 10.16 88.9348 10.008 89.9908 10.008H93.1828C93.1828 9.256 93.0628 8.632 92.8228 8.136C92.5988 7.624 92.2628 7.24 91.8148 6.984C91.3828 6.728 90.8388 6.6 90.1828 6.6C89.4148 6.6 88.7508 6.792 88.1908 7.176C87.6308 7.56 87.2868 8.128 87.1588 8.88H85.0948C85.1908 8.016 85.4788 7.296 85.9588 6.72C86.4548 6.128 87.0788 5.68 87.8308 5.376C88.5828 5.056 89.3668 4.896 90.1828 4.896C91.3028 4.896 92.2308 5.104 92.9668 5.52C93.7188 5.92 94.2788 6.488 94.6468 7.224C95.0148 7.944 95.1988 8.8 95.1988 9.792V17.28H93.3988L93.2788 15.144C93.1188 15.48 92.9108 15.8 92.6548 16.104C92.4148 16.392 92.1268 16.648 91.7908 16.872C91.4708 17.08 91.0948 17.248 90.6628 17.376C90.2308 17.504 89.7428 17.568 89.1988 17.568ZM89.5108 15.864C90.0708 15.864 90.5748 15.752 91.0228 15.528C91.4868 15.288 91.8788 14.968 92.1988 14.568C92.5188 14.152 92.7588 13.696 92.9188 13.2C93.0948 12.704 93.1828 12.184 93.1828 11.64V11.568H90.1588C89.3748 11.568 88.7428 11.664 88.2628 11.856C87.7828 12.032 87.4388 12.288 87.2308 12.624C87.0228 12.944 86.9188 13.312 86.9188 13.728C86.9188 14.16 87.0148 14.536 87.2068 14.856C87.4148 15.176 87.7108 15.424 88.0948 15.6C88.4948 15.776 88.9668 15.864 89.5108 15.864Z" fill="white"/>
<path d="M71.4816 17.28V5.184H73.3056L73.4016 7.296C73.7856 6.544 74.3296 5.96 75.0336 5.544C75.7536 5.112 76.5696 4.896 77.4816 4.896C78.4256 4.896 79.2416 5.088 79.9296 5.472C80.6176 5.84 81.1536 6.408 81.5376 7.176C81.9216 7.928 82.1136 8.888 82.1136 10.056V17.28H80.0976V10.272C80.0976 9.056 79.8256 8.144 79.2816 7.536C78.7536 6.928 78.0016 6.624 77.0256 6.624C76.3536 6.624 75.7536 6.792 75.2256 7.128C74.6976 7.448 74.2736 7.92 73.9536 8.544C73.6496 9.152 73.4976 9.912 73.4976 10.824V17.28H71.4816Z" fill="white"/>
<path d="M55.4117 17.568C54.2437 17.568 53.2117 17.296 52.3157 16.752C51.4357 16.192 50.7557 15.432 50.2757 14.472C49.7957 13.512 49.5557 12.424 49.5557 11.208C49.5557 9.992 49.7957 8.912 50.2757 7.968C50.7557 7.008 51.4357 6.256 52.3157 5.712C53.2117 5.168 54.2517 4.896 55.4357 4.896C56.4117 4.896 57.2677 5.096 58.0037 5.496C58.7557 5.896 59.3397 6.456 59.7557 7.176V0H61.7717V17.28H59.9477L59.7557 15.288C59.4997 15.688 59.1717 16.064 58.7717 16.416C58.3717 16.752 57.8917 17.032 57.3317 17.256C56.7877 17.464 56.1477 17.568 55.4117 17.568ZM55.6277 15.816C56.4277 15.816 57.1317 15.624 57.7397 15.24C58.3477 14.856 58.8197 14.328 59.1557 13.656C59.5077 12.968 59.6837 12.16 59.6837 11.232C59.6837 10.32 59.5077 9.52 59.1557 8.832C58.8197 8.144 58.3477 7.608 57.7397 7.224C57.1317 6.84 56.4277 6.648 55.6277 6.648C54.8597 6.648 54.1637 6.84 53.5397 7.224C52.9317 7.608 52.4597 8.144 52.1237 8.832C51.7877 9.52 51.6197 10.32 51.6197 11.232C51.6197 12.16 51.7877 12.968 52.1237 13.656C52.4597 14.328 52.9317 14.856 53.5397 15.24C54.1637 15.624 54.8597 15.816 55.6277 15.816Z" fill="white"/>
<path d="M36.2784 17.28V5.184H38.1024L38.1984 7.296C38.5824 6.544 39.1264 5.96 39.8304 5.544C40.5504 5.112 41.3664 4.896 42.2784 4.896C43.2224 4.896 44.0384 5.088 44.7264 5.472C45.4144 5.84 45.9504 6.408 46.3344 7.176C46.7184 7.928 46.9104 8.888 46.9104 10.056V17.28H44.8944V10.272C44.8944 9.056 44.6224 8.144 44.0784 7.536C43.5504 6.928 42.7984 6.624 41.8224 6.624C41.1504 6.624 40.5504 6.792 40.0224 7.128C39.4944 7.448 39.0704 7.92 38.7504 8.544C38.4464 9.152 38.2944 9.912 38.2944 10.824V17.28H36.2784Z" fill="white"/>
<path d="M27.1598 17.568C26.1838 17.568 25.3678 17.4 24.7118 17.064C24.0558 16.712 23.5678 16.256 23.2478 15.696C22.9278 15.12 22.7678 14.496 22.7678 13.824C22.7678 13.008 22.9758 12.32 23.3918 11.76C23.8238 11.184 24.4238 10.752 25.1918 10.464C25.9758 10.16 26.8958 10.008 27.9518 10.008H31.1438C31.1438 9.256 31.0238 8.632 30.7838 8.136C30.5598 7.624 30.2238 7.24 29.7758 6.984C29.3438 6.728 28.7998 6.6 28.1438 6.6C27.3758 6.6 26.7118 6.792 26.1518 7.176C25.5918 7.56 25.2478 8.128 25.1198 8.88H23.0558C23.1518 8.016 23.4398 7.296 23.9198 6.72C24.4158 6.128 25.0398 5.68 25.7918 5.376C26.5438 5.056 27.3278 4.896 28.1438 4.896C29.2638 4.896 30.1918 5.104 30.9278 5.52C31.6798 5.92 32.2398 6.488 32.6078 7.224C32.9758 7.944 33.1598 8.8 33.1598 9.792V17.28H31.3598L31.2398 15.144C31.0798 15.48 30.8718 15.8 30.6158 16.104C30.3758 16.392 30.0878 16.648 29.7518 16.872C29.4318 17.08 29.0558 17.248 28.6238 17.376C28.1918 17.504 27.7038 17.568 27.1598 17.568ZM27.4718 15.864C28.0318 15.864 28.5358 15.752 28.9838 15.528C29.4478 15.288 29.8398 14.968 30.1598 14.568C30.4798 14.152 30.7198 13.696 30.8798 13.2C31.0558 12.704 31.1438 12.184 31.1438 11.64V11.568H28.1198C27.3358 11.568 26.7038 11.664 26.2238 11.856C25.7438 12.032 25.3998 12.288 25.1918 12.624C24.9838 12.944 24.8798 13.312 24.8798 13.728C24.8798 14.16 24.9758 14.536 25.1678 14.856C25.3758 15.176 25.6718 15.424 26.0558 15.6C26.4558 15.776 26.9278 15.864 27.4718 15.864Z" fill="white"/>
<path d="M14.3409 17.28V5.184H16.1649L16.3089 7.488C16.5809 6.944 16.9249 6.48 17.3409 6.096C17.7729 5.712 18.2849 5.416 18.8769 5.208C19.4849 5 20.1729 4.896 20.9409 4.896V7.008H20.1969C19.6849 7.008 19.1969 7.08 18.7329 7.224C18.2689 7.352 17.8529 7.568 17.4849 7.872C17.1329 8.176 16.8529 8.592 16.6449 9.12C16.4529 9.632 16.3569 10.272 16.3569 11.04V17.28H14.3409Z" fill="white"/>
<path d="M0 17.28V0.47998H5.904C7.088 0.47998 8.064 0.67198 8.832 1.05598C9.616 1.42398 10.2 1.93598 10.584 2.59198C10.968 3.23198 11.16 3.95198 11.16 4.75198C11.16 5.61598 10.968 6.33598 10.584 6.91198C10.216 7.48798 9.728 7.92798 9.12 8.23198C8.528 8.53598 7.896 8.71998 7.224 8.78398L7.56 8.54398C8.28 8.55998 8.944 8.75198 9.552 9.11998C10.16 9.48798 10.64 9.98398 10.992 10.608C11.36 11.232 11.544 11.928 11.544 12.696C11.544 13.544 11.336 14.32 10.92 15.024C10.504 15.712 9.888 16.264 9.072 16.68C8.272 17.08 7.28 17.28 6.096 17.28H0ZM2.016 15.6H5.88C7.016 15.6 7.896 15.336 8.52 14.808C9.16 14.264 9.48 13.512 9.48 12.552C9.48 11.608 9.152 10.856 8.496 10.296C7.856 9.71998 6.968 9.43198 5.832 9.43198H2.016V15.6ZM2.016 7.82398H5.76C6.848 7.82398 7.672 7.56798 8.232 7.05598C8.808 6.54398 9.096 5.84798 9.096 4.96798C9.096 4.11998 8.808 3.43998 8.232 2.92798C7.672 2.41598 6.824 2.15998 5.688 2.15998H2.016V7.82398Z" fill="white"/>
</svg>
