<svg width="125" height="15" viewBox="0 0 125 15" fill="none" xmlns="http://www.w3.org/2000/svg">
<path d="M0 14.7541V0.409836H1.67251L9.09925 11.9057V0.409836H10.7718V14.7541H9.09925L1.67251 3.2582V14.7541H0Z" fill="white"/>
<path d="M18.0681 15C17.1257 15 16.2894 14.7814 15.5594 14.3443C14.8293 13.8934 14.2519 13.2719 13.8271 12.4795C13.4156 11.6872 13.2099 10.7514 13.2099 9.67213C13.2099 8.60656 13.4156 7.6776 13.8271 6.88525C14.2386 6.07923 14.8094 5.45765 15.5395 5.02049C16.2828 4.56967 17.139 4.34426 18.108 4.34426C19.0637 4.34426 19.8867 4.56967 20.5769 5.02049C21.2804 5.45765 21.818 6.03825 22.1897 6.7623C22.5613 7.48634 22.7472 8.26503 22.7472 9.09836C22.7472 9.24863 22.7405 9.39891 22.7273 9.54918C22.7273 9.69945 22.7273 9.87022 22.7273 10.0615H14.8625C14.9023 10.8402 15.0749 11.4891 15.3802 12.0082C15.6988 12.5137 16.0903 12.8962 16.5549 13.1557C17.0328 13.4153 17.5372 13.5451 18.0681 13.5451C18.7584 13.5451 19.3358 13.3811 19.8004 13.0533C20.265 12.7254 20.6035 12.2814 20.8158 11.7213H22.4684C22.203 12.6639 21.6919 13.4495 20.9353 14.0779C20.192 14.6926 19.2362 15 18.0681 15ZM18.0681 5.79918C17.2717 5.79918 16.5616 6.05191 15.9377 6.55738C15.3271 7.04918 14.9753 7.77322 14.8824 8.72951H21.0946C21.0548 7.81421 20.7495 7.09699 20.1787 6.57787C19.6079 6.05874 18.9044 5.79918 18.0681 5.79918Z" fill="white"/>
<path d="M23.5018 14.7541L26.9264 9.67213L23.5018 4.59016H25.3137L28.0813 8.79098L30.8688 4.59016H32.6608L29.2361 9.67213L32.6608 14.7541H30.8688L28.0813 10.5533L25.3137 14.7541H23.5018Z" fill="white"/>
<path d="M38.3164 14.7541C37.4137 14.7541 36.7036 14.5287 36.1859 14.0779C35.6682 13.627 35.4094 12.8142 35.4094 11.6393V6.04508H33.697V4.59016H35.4094L35.6284 2.15164H37.0819V4.59016H39.9889V6.04508H37.0819V11.6393C37.0819 12.2814 37.208 12.7186 37.4602 12.9508C37.7124 13.1694 38.1571 13.2787 38.7942 13.2787H39.8296V14.7541H38.3164Z" fill="white"/>
<path d="M50.3498 14.7746L46.5269 0.409836H48.3189L51.3254 12.7254L54.7501 0.409836H56.6018L59.9269 12.7254L62.9733 0.409836H64.7652L60.8627 14.7541H58.9513L55.6262 2.90984L52.2214 14.7541L50.3498 14.7746Z" fill="white"/>
<path d="M68.9459 15C68.1229 15 67.4393 14.8566 66.8951 14.5697C66.3509 14.2828 65.946 13.9003 65.6805 13.4221C65.415 12.944 65.2823 12.4249 65.2823 11.8648C65.2823 10.8265 65.6672 10.0273 66.4371 9.46721C67.207 8.9071 68.2557 8.62705 69.583 8.62705H72.2511V8.5041C72.2511 7.61612 72.0254 6.94672 71.5741 6.4959C71.1228 6.03142 70.5188 5.79918 69.7622 5.79918C69.1118 5.79918 68.5477 5.96995 68.0698 6.31148C67.6052 6.63934 67.3132 7.12432 67.1937 7.76639H65.4814C65.5478 7.02869 65.7867 6.4071 66.1982 5.90164C66.623 5.39617 67.1473 5.01366 67.7712 4.7541C68.395 4.48087 69.0587 4.34426 69.7622 4.34426C71.1427 4.34426 72.1781 4.72678 72.8683 5.4918C73.5718 6.24317 73.9236 7.24727 73.9236 8.5041V14.7541H72.4303L72.3307 12.9303C72.052 13.5041 71.6405 13.9959 71.0963 14.4057C70.5653 14.8019 69.8485 15 68.9459 15ZM69.2047 13.5451C69.8419 13.5451 70.3861 13.3743 70.8374 13.0328C71.302 12.6913 71.6538 12.2473 71.8927 11.7008C72.1316 11.1544 72.2511 10.5806 72.2511 9.97951V9.95902H69.7224C68.7402 9.95902 68.0433 10.1366 67.6318 10.4918C67.2336 10.8333 67.0345 11.2637 67.0345 11.7828C67.0345 12.3156 67.2203 12.7459 67.592 13.0738C67.9769 13.388 68.5145 13.5451 69.2047 13.5451Z" fill="white"/>
<path d="M78.9105 14.7541L75.1673 4.59016H76.9194L79.8861 13.0943L82.8727 4.59016H84.5851L80.8418 14.7541H78.9105Z" fill="white"/>
<path d="M90.381 15C89.4385 15 88.6023 14.7814 87.8722 14.3443C87.1422 13.8934 86.5647 13.2719 86.14 12.4795C85.7285 11.6872 85.5227 10.7514 85.5227 9.67213C85.5227 8.60656 85.7285 7.6776 86.14 6.88525C86.5515 6.07923 87.1222 5.45765 87.8523 5.02049C88.5956 4.56967 89.4518 4.34426 90.4208 4.34426C91.3765 4.34426 92.1995 4.56967 92.8897 5.02049C93.5933 5.45765 94.1309 6.03825 94.5025 6.7623C94.8742 7.48634 95.06 8.26503 95.06 9.09836C95.06 9.24863 95.0534 9.39891 95.0401 9.54918C95.0401 9.69945 95.0401 9.87022 95.0401 10.0615H87.1753C87.2152 10.8402 87.3877 11.4891 87.693 12.0082C88.0116 12.5137 88.4032 12.8962 88.8678 13.1557C89.3456 13.4153 89.85 13.5451 90.381 13.5451C91.0712 13.5451 91.6486 13.3811 92.1132 13.0533C92.5778 12.7254 92.9163 12.2814 93.1287 11.7213H94.7813C94.5158 12.6639 94.0048 13.4495 93.2481 14.0779C92.5048 14.6926 91.5491 15 90.381 15ZM90.381 5.79918C89.5846 5.79918 88.8744 6.05191 88.2505 6.55738C87.6399 7.04918 87.2882 7.77322 87.1953 8.72951H93.4074C93.3676 7.81421 93.0623 7.09699 92.4915 6.57787C91.9208 6.05874 91.2172 5.79918 90.381 5.79918Z" fill="white"/>
<path d="M101.77 14.7541L106.907 0.409836H108.679L113.796 14.7541H112.024L110.749 11.0656H104.816L103.522 14.7541H101.77ZM105.314 9.67213H110.252L107.783 2.58197L105.314 9.67213Z" fill="white"/>
<path d="M119.704 15C118.721 15 117.859 14.7678 117.115 14.3033C116.385 13.8388 115.814 13.2036 115.403 12.3975C115.005 11.5915 114.806 10.6762 114.806 9.65164C114.806 8.62705 115.011 7.71858 115.423 6.92623C115.834 6.12022 116.405 5.4918 117.135 5.04098C117.865 4.5765 118.728 4.34426 119.724 4.34426C120.533 4.34426 121.25 4.51503 121.874 4.85656C122.498 5.19809 122.982 5.67623 123.327 6.29098V0H125V14.7541H123.487L123.327 13.0738C123.009 13.5656 122.551 14.0096 121.954 14.4057C121.356 14.8019 120.606 15 119.704 15ZM119.883 13.5041C120.547 13.5041 121.131 13.347 121.635 13.0328C122.153 12.7049 122.551 12.2541 122.83 11.6803C123.122 11.1066 123.268 10.4372 123.268 9.67213C123.268 8.9071 123.122 8.23771 122.83 7.66393C122.551 7.09016 122.153 6.64618 121.635 6.33197C121.131 6.0041 120.547 5.84016 119.883 5.84016C119.232 5.84016 118.648 6.0041 118.131 6.33197C117.626 6.64618 117.228 7.09016 116.936 7.66393C116.657 8.23771 116.518 8.9071 116.518 9.67213C116.518 10.4372 116.657 11.1066 116.936 11.6803C117.228 12.2541 117.626 12.7049 118.131 13.0328C118.648 13.347 119.232 13.5041 119.883 13.5041Z" fill="white"/>
</svg>
