<svg width="131" height="40" viewBox="0 0 131 40" fill="none" xmlns="http://www.w3.org/2000/svg">
<path d="M124.996 17.568C123.876 17.568 122.876 17.304 121.996 16.776C121.116 16.248 120.428 15.512 119.932 14.568C119.436 13.608 119.188 12.496 119.188 11.232C119.188 9.952 119.428 8.84 119.908 7.896C120.404 6.952 121.092 6.216 121.972 5.688C122.868 5.16 123.892 4.896 125.044 4.896C126.228 4.896 127.236 5.16 128.068 5.688C128.9 6.216 129.532 6.912 129.964 7.776C130.412 8.624 130.636 9.56 130.636 10.584C130.636 10.744 130.636 10.912 130.636 11.088C130.636 11.264 130.628 11.464 130.612 11.688H120.7V10.128H128.644C128.596 9.024 128.228 8.16 127.54 7.536C126.868 6.912 126.02 6.6 124.996 6.6C124.324 6.6 123.692 6.76 123.1 7.08C122.508 7.384 122.036 7.84 121.684 8.448C121.332 9.04 121.156 9.784 121.156 10.68V11.352C121.156 12.344 121.332 13.176 121.684 13.848C122.052 14.52 122.524 15.024 123.1 15.36C123.692 15.696 124.324 15.864 124.996 15.864C125.844 15.864 126.54 15.68 127.084 15.312C127.644 14.928 128.052 14.408 128.308 13.752H130.3C130.092 14.488 129.748 15.144 129.268 15.72C128.788 16.28 128.188 16.728 127.468 17.064C126.764 17.4 125.94 17.568 124.996 17.568Z" fill="white"/>
<path d="M98.3175 17.28V5.184H100.142L100.262 6.912C100.646 6.288 101.158 5.8 101.798 5.448C102.454 5.08 103.166 4.896 103.934 4.896C104.558 4.896 105.118 4.984 105.614 5.16C106.126 5.32 106.574 5.576 106.958 5.928C107.358 6.264 107.67 6.696 107.894 7.224C108.31 6.488 108.886 5.92 109.622 5.52C110.358 5.104 111.134 4.896 111.95 4.896C112.894 4.896 113.71 5.088 114.398 5.472C115.086 5.84 115.622 6.408 116.006 7.176C116.39 7.928 116.582 8.888 116.582 10.056V17.28H114.59V10.272C114.59 9.056 114.342 8.144 113.846 7.536C113.35 6.928 112.646 6.624 111.734 6.624C111.11 6.624 110.55 6.792 110.054 7.128C109.558 7.448 109.166 7.92 108.878 8.544C108.59 9.168 108.446 9.936 108.446 10.848V17.28H106.43V10.272C106.43 9.056 106.182 8.144 105.686 7.536C105.19 6.928 104.494 6.624 103.598 6.624C102.99 6.624 102.438 6.792 101.942 7.128C101.446 7.448 101.054 7.92 100.766 8.544C100.478 9.168 100.334 9.936 100.334 10.848V17.28H98.3175Z" fill="white"/>
<path d="M89.1988 17.568C88.2228 17.568 87.4068 17.4 86.7508 17.064C86.0948 16.712 85.6068 16.256 85.2868 15.696C84.9668 15.12 84.8068 14.496 84.8068 13.824C84.8068 13.008 85.0148 12.32 85.4308 11.76C85.8628 11.184 86.4628 10.752 87.2308 10.464C88.0148 10.16 88.9348 10.008 89.9908 10.008H93.1828C93.1828 9.256 93.0628 8.632 92.8228 8.136C92.5988 7.624 92.2628 7.24 91.8148 6.984C91.3828 6.728 90.8388 6.6 90.1828 6.6C89.4148 6.6 88.7508 6.792 88.1908 7.176C87.6308 7.56 87.2868 8.128 87.1588 8.88H85.0948C85.1908 8.016 85.4788 7.296 85.9588 6.72C86.4548 6.128 87.0788 5.68 87.8308 5.376C88.5828 5.056 89.3668 4.896 90.1828 4.896C91.3028 4.896 92.2308 5.104 92.9668 5.52C93.7188 5.92 94.2788 6.488 94.6468 7.224C95.0148 7.944 95.1988 8.8 95.1988 9.792V17.28H93.3988L93.2788 15.144C93.1188 15.48 92.9108 15.8 92.6548 16.104C92.4148 16.392 92.1268 16.648 91.7908 16.872C91.4708 17.08 91.0948 17.248 90.6628 17.376C90.2308 17.504 89.7428 17.568 89.1988 17.568ZM89.5108 15.864C90.0708 15.864 90.5748 15.752 91.0228 15.528C91.4868 15.288 91.8788 14.968 92.1988 14.568C92.5188 14.152 92.7588 13.696 92.9188 13.2C93.0948 12.704 93.1828 12.184 93.1828 11.64V11.568H90.1588C89.3748 11.568 88.7428 11.664 88.2628 11.856C87.7828 12.032 87.4388 12.288 87.2308 12.624C87.0228 12.944 86.9188 13.312 86.9188 13.728C86.9188 14.16 87.0148 14.536 87.2068 14.856C87.4148 15.176 87.7108 15.424 88.0948 15.6C88.4948 15.776 88.9668 15.864 89.5108 15.864Z" fill="white"/>
<path d="M71.4816 17.28V5.184H73.3056L73.4016 7.296C73.7856 6.544 74.3296 5.96 75.0336 5.544C75.7536 5.112 76.5696 4.896 77.4816 4.896C78.4256 4.896 79.2416 5.088 79.9296 5.472C80.6176 5.84 81.1536 6.408 81.5376 7.176C81.9216 7.928 82.1136 8.888 82.1136 10.056V17.28H80.0976V10.272C80.0976 9.056 79.8256 8.144 79.2816 7.536C78.7536 6.928 78.0016 6.624 77.0256 6.624C76.3536 6.624 75.7536 6.792 75.2256 7.128C74.6976 7.448 74.2736 7.92 73.9536 8.544C73.6496 9.152 73.4976 9.912 73.4976 10.824V17.28H71.4816Z" fill="white"/>
<path d="M55.4117 17.568C54.2437 17.568 53.2117 17.296 52.3157 16.752C51.4357 16.192 50.7557 15.432 50.2757 14.472C49.7957 13.512 49.5557 12.424 49.5557 11.208C49.5557 9.992 49.7957 8.912 50.2757 7.968C50.7557 7.008 51.4357 6.256 52.3157 5.712C53.2117 5.168 54.2517 4.896 55.4357 4.896C56.4117 4.896 57.2677 5.096 58.0037 5.496C58.7557 5.896 59.3397 6.456 59.7557 7.176V0H61.7717V17.28H59.9477L59.7557 15.288C59.4997 15.688 59.1717 16.064 58.7717 16.416C58.3717 16.752 57.8917 17.032 57.3317 17.256C56.7877 17.464 56.1477 17.568 55.4117 17.568ZM55.6277 15.816C56.4277 15.816 57.1317 15.624 57.7397 15.24C58.3477 14.856 58.8197 14.328 59.1557 13.656C59.5077 12.968 59.6837 12.16 59.6837 11.232C59.6837 10.32 59.5077 9.52 59.1557 8.832C58.8197 8.144 58.3477 7.608 57.7397 7.224C57.1317 6.84 56.4277 6.648 55.6277 6.648C54.8597 6.648 54.1637 6.84 53.5397 7.224C52.9317 7.608 52.4597 8.144 52.1237 8.832C51.7877 9.52 51.6197 10.32 51.6197 11.232C51.6197 12.16 51.7877 12.968 52.1237 13.656C52.4597 14.328 52.9317 14.856 53.5397 15.24C54.1637 15.624 54.8597 15.816 55.6277 15.816Z" fill="white"/>
<path d="M36.2784 17.28V5.184H38.1024L38.1984 7.296C38.5824 6.544 39.1264 5.96 39.8304 5.544C40.5504 5.112 41.3664 4.896 42.2784 4.896C43.2224 4.896 44.0384 5.088 44.7264 5.472C45.4144 5.84 45.9504 6.408 46.3344 7.176C46.7184 7.928 46.9104 8.888 46.9104 10.056V17.28H44.8944V10.272C44.8944 9.056 44.6224 8.144 44.0784 7.536C43.5504 6.928 42.7984 6.624 41.8224 6.624C41.1504 6.624 40.5504 6.792 40.0224 7.128C39.4944 7.448 39.0704 7.92 38.7504 8.544C38.4464 9.152 38.2944 9.912 38.2944 10.824V17.28H36.2784Z" fill="white"/>
<path d="M27.1598 17.568C26.1838 17.568 25.3678 17.4 24.7118 17.064C24.0558 16.712 23.5678 16.256 23.2478 15.696C22.9278 15.12 22.7678 14.496 22.7678 13.824C22.7678 13.008 22.9758 12.32 23.3918 11.76C23.8238 11.184 24.4238 10.752 25.1918 10.464C25.9758 10.16 26.8958 10.008 27.9518 10.008H31.1438C31.1438 9.256 31.0238 8.632 30.7838 8.136C30.5598 7.624 30.2238 7.24 29.7758 6.984C29.3438 6.728 28.7998 6.6 28.1438 6.6C27.3758 6.6 26.7118 6.792 26.1518 7.176C25.5918 7.56 25.2478 8.128 25.1198 8.88H23.0558C23.1518 8.016 23.4398 7.296 23.9198 6.72C24.4158 6.128 25.0398 5.68 25.7918 5.376C26.5438 5.056 27.3278 4.896 28.1438 4.896C29.2638 4.896 30.1918 5.104 30.9278 5.52C31.6798 5.92 32.2398 6.488 32.6078 7.224C32.9758 7.944 33.1598 8.8 33.1598 9.792V17.28H31.3598L31.2398 15.144C31.0798 15.48 30.8718 15.8 30.6158 16.104C30.3758 16.392 30.0878 16.648 29.7518 16.872C29.4318 17.08 29.0558 17.248 28.6238 17.376C28.1918 17.504 27.7038 17.568 27.1598 17.568ZM27.4718 15.864C28.0318 15.864 28.5358 15.752 28.9838 15.528C29.4478 15.288 29.8398 14.968 30.1598 14.568C30.4798 14.152 30.7198 13.696 30.8798 13.2C31.0558 12.704 31.1438 12.184 31.1438 11.64V11.568H28.1198C27.3358 11.568 26.7038 11.664 26.2238 11.856C25.7438 12.032 25.3998 12.288 25.1918 12.624C24.9838 12.944 24.8798 13.312 24.8798 13.728C24.8798 14.16 24.9758 14.536 25.1678 14.856C25.3758 15.176 25.6718 15.424 26.0558 15.6C26.4558 15.776 26.9278 15.864 27.4718 15.864Z" fill="white"/>
<path d="M14.3409 17.28V5.184H16.1649L16.3089 7.488C16.5809 6.944 16.9249 6.48 17.3409 6.096C17.7729 5.712 18.2849 5.416 18.8769 5.208C19.4849 5 20.1729 4.896 20.9409 4.896V7.008H20.1969C19.6849 7.008 19.1969 7.08 18.7329 7.224C18.2689 7.352 17.8529 7.568 17.4849 7.872C17.1329 8.176 16.8529 8.592 16.6449 9.12C16.4529 9.632 16.3569 10.272 16.3569 11.04V17.28H14.3409Z" fill="white"/>
<path d="M0 17.28V0.47998H5.904C7.088 0.47998 8.064 0.67198 8.832 1.05598C9.616 1.42398 10.2 1.93598 10.584 2.59198C10.968 3.23198 11.16 3.95198 11.16 4.75198C11.16 5.61598 10.968 6.33598 10.584 6.91198C10.216 7.48798 9.728 7.92798 9.12 8.23198C8.528 8.53598 7.896 8.71998 7.224 8.78398L7.56 8.54398C8.28 8.55998 8.944 8.75198 9.552 9.11998C10.16 9.48798 10.64 9.98398 10.992 10.608C11.36 11.232 11.544 11.928 11.544 12.696C11.544 13.544 11.336 14.32 10.92 15.024C10.504 15.712 9.888 16.264 9.072 16.68C8.272 17.08 7.28 17.28 6.096 17.28H0ZM2.016 15.6H5.88C7.016 15.6 7.896 15.336 8.52 14.808C9.16 14.264 9.48 13.512 9.48 12.552C9.48 11.608 9.152 10.856 8.496 10.296C7.856 9.71998 6.968 9.43198 5.832 9.43198H2.016V15.6ZM2.016 7.82398H5.76C6.848 7.82398 7.672 7.56798 8.232 7.05598C8.808 6.54398 9.096 5.84798 9.096 4.96798C9.096 4.11998 8.808 3.43998 8.232 2.92798C7.672 2.41598 6.824 2.15998 5.688 2.15998H2.016V7.82398Z" fill="white"/>
<path d="M2.976 35.5681V32.3761L0.24 27.1681H1.38L3.636 31.7161H3.336L5.58 27.1681H6.708L3.984 32.3761V35.5681H2.976ZM9.45797 35.7121C8.89797 35.7121 8.39397 35.5841 7.94597 35.3281C7.49797 35.0641 7.14597 34.6961 6.88997 34.2241C6.63397 33.7441 6.50597 33.1881 6.50597 32.5561C6.50597 31.9081 6.63397 31.3481 6.88997 30.8761C7.15397 30.3961 7.50997 30.0281 7.95797 29.7721C8.41397 29.5081 8.92197 29.3761 9.48197 29.3761C10.058 29.3761 10.566 29.5081 11.006 29.7721C11.454 30.0281 11.806 30.3961 12.062 30.8761C12.326 31.3481 12.458 31.9041 12.458 32.5441C12.458 33.1841 12.326 33.7441 12.062 34.2241C11.798 34.6961 11.442 35.0641 10.994 35.3281C10.546 35.5841 10.034 35.7121 9.45797 35.7121ZM9.46997 34.8481C9.81397 34.8481 10.134 34.7641 10.43 34.5961C10.726 34.4201 10.966 34.1601 11.15 33.8161C11.334 33.4721 11.426 33.0481 11.426 32.5441C11.426 32.0321 11.334 31.6081 11.15 31.2721C10.974 30.9281 10.738 30.6721 10.442 30.5041C10.154 30.3281 9.83397 30.2401 9.48197 30.2401C9.14597 30.2401 8.82597 30.3281 8.52197 30.5041C8.22597 30.6721 7.98597 30.9281 7.80197 31.2721C7.62597 31.6081 7.53797 32.0321 7.53797 32.5441C7.53797 33.0481 7.62597 33.4721 7.80197 33.8161C7.98597 34.1601 8.22197 34.4201 8.50997 34.5961C8.80597 34.7641 9.12597 34.8481 9.46997 34.8481ZM16.0673 35.7121C15.6033 35.7121 15.1953 35.6201 14.8433 35.4361C14.4993 35.2521 14.2313 34.9681 14.0393 34.5841C13.8553 34.2001 13.7633 33.7201 13.7633 33.1441V29.5201H14.7713V33.0361C14.7713 33.6361 14.9033 34.0881 15.1673 34.3921C15.4313 34.6961 15.8033 34.8481 16.2833 34.8481C16.6193 34.8481 16.9233 34.7681 17.1953 34.6081C17.4673 34.4401 17.6793 34.2041 17.8313 33.9001C17.9913 33.5881 18.0713 33.2041 18.0713 32.7481V29.5201H19.0793V35.5681H18.1673L18.1073 34.5121C17.9233 34.8881 17.6513 35.1841 17.2913 35.4001C16.9313 35.6081 16.5233 35.7121 16.0673 35.7121ZM20.7502 35.5681V29.5201H21.6622L21.7342 30.6721C21.8702 30.4001 22.0422 30.1681 22.2502 29.9761C22.4662 29.7841 22.7222 29.6361 23.0182 29.5321C23.3222 29.4281 23.6662 29.3761 24.0502 29.3761V30.4321H23.6782C23.4222 30.4321 23.1782 30.4681 22.9462 30.5401C22.7142 30.6041 22.5062 30.7121 22.3222 30.8641C22.1462 31.0161 22.0062 31.2241 21.9022 31.4881C21.8062 31.7441 21.7582 32.0641 21.7582 32.4481V35.5681H20.7502ZM32.0871 35.7121C31.2711 35.7121 30.5631 35.5321 29.9631 35.1721C29.3711 34.8041 28.9151 34.2961 28.5951 33.6481C28.2751 32.9921 28.1151 32.2321 28.1151 31.3681C28.1151 30.5041 28.2751 29.7481 28.5951 29.1001C28.9151 28.4441 29.3711 27.9361 29.9631 27.5761C30.5631 27.2081 31.2711 27.0241 32.0871 27.0241C33.0471 27.0241 33.8271 27.2521 34.4271 27.7081C35.0271 28.1641 35.4111 28.8081 35.5791 29.6401H34.4631C34.3351 29.1201 34.0751 28.7041 33.6831 28.3921C33.2911 28.0721 32.7591 27.9121 32.0871 27.9121C31.4951 27.9121 30.9751 28.0521 30.5271 28.3321C30.0871 28.6041 29.7471 29.0001 29.5071 29.5201C29.2671 30.0321 29.1471 30.6481 29.1471 31.3681C29.1471 32.0881 29.2671 32.7081 29.5071 33.2281C29.7471 33.7401 30.0871 34.1361 30.5271 34.4161C30.9751 34.6881 31.4951 34.8241 32.0871 34.8241C32.7591 34.8241 33.2911 34.6721 33.6831 34.3681C34.0751 34.0561 34.3351 33.6441 34.4631 33.1321H35.5791C35.4111 33.9401 35.0271 34.5721 34.4271 35.0281C33.8271 35.4841 33.0471 35.7121 32.0871 35.7121ZM39.6806 35.7121C39.1206 35.7121 38.6166 35.5841 38.1686 35.3281C37.7206 35.0641 37.3686 34.6961 37.1126 34.2241C36.8566 33.7441 36.7286 33.1881 36.7286 32.5561C36.7286 31.9081 36.8566 31.3481 37.1126 30.8761C37.3766 30.3961 37.7326 30.0281 38.1806 29.7721C38.6366 29.5081 39.1446 29.3761 39.7046 29.3761C40.2806 29.3761 40.7886 29.5081 41.2286 29.7721C41.6766 30.0281 42.0286 30.3961 42.2846 30.8761C42.5486 31.3481 42.6806 31.9041 42.6806 32.5441C42.6806 33.1841 42.5486 33.7441 42.2846 34.2241C42.0206 34.6961 41.6646 35.0641 41.2166 35.3281C40.7686 35.5841 40.2566 35.7121 39.6806 35.7121ZM39.6926 34.8481C40.0366 34.8481 40.3566 34.7641 40.6526 34.5961C40.9486 34.4201 41.1886 34.1601 41.3726 33.8161C41.5566 33.4721 41.6486 33.0481 41.6486 32.5441C41.6486 32.0321 41.5566 31.6081 41.3726 31.2721C41.1966 30.9281 40.9606 30.6721 40.6646 30.5041C40.3766 30.3281 40.0566 30.2401 39.7046 30.2401C39.3686 30.2401 39.0486 30.3281 38.7446 30.5041C38.4486 30.6721 38.2086 30.9281 38.0246 31.2721C37.8486 31.6081 37.7606 32.0321 37.7606 32.5441C37.7606 33.0481 37.8486 33.4721 38.0246 33.8161C38.2086 34.1601 38.4446 34.4201 38.7326 34.5961C39.0286 34.7641 39.3486 34.8481 39.6926 34.8481ZM44.0939 35.5681V29.5201H45.0059L45.0659 30.3841C45.2579 30.0721 45.5139 29.8281 45.8339 29.6521C46.1619 29.4681 46.5179 29.3761 46.9019 29.3761C47.2139 29.3761 47.4939 29.4201 47.7419 29.5081C47.9979 29.5881 48.2219 29.7161 48.4139 29.8921C48.6139 30.0601 48.7699 30.2761 48.8819 30.5401C49.0899 30.1721 49.3779 29.8881 49.7459 29.6881C50.1139 29.4801 50.5019 29.3761 50.9099 29.3761C51.3819 29.3761 51.7899 29.4721 52.1339 29.6641C52.4779 29.8481 52.7459 30.1321 52.9379 30.5161C53.1299 30.8921 53.2259 31.3721 53.2259 31.9561V35.5681H52.2299V32.0641C52.2299 31.4561 52.1059 31.0001 51.8579 30.6961C51.6099 30.3921 51.2579 30.2401 50.8019 30.2401C50.4899 30.2401 50.2099 30.3241 49.9619 30.4921C49.7139 30.6521 49.5179 30.8881 49.3739 31.2001C49.2299 31.5121 49.1579 31.8961 49.1579 32.3521V35.5681H48.1499V32.0641C48.1499 31.4561 48.0259 31.0001 47.7779 30.6961C47.5299 30.3921 47.1819 30.2401 46.7339 30.2401C46.4299 30.2401 46.1539 30.3241 45.9059 30.4921C45.6579 30.6521 45.4619 30.8881 45.3179 31.2001C45.1739 31.5121 45.1019 31.8961 45.1019 32.3521V35.5681H44.0939ZM54.7814 38.2081V29.5201H55.6934L55.7774 30.5041C55.9054 30.3121 56.0694 30.1321 56.2694 29.9641C56.4694 29.7881 56.7094 29.6481 56.9894 29.5441C57.2694 29.4321 57.5934 29.3761 57.9614 29.3761C58.5454 29.3761 59.0534 29.5161 59.4854 29.7961C59.9254 30.0761 60.2654 30.4561 60.5054 30.9361C60.7534 31.4081 60.8774 31.9481 60.8774 32.5561C60.8774 33.1641 60.7534 33.7081 60.5054 34.1881C60.2654 34.6601 59.9254 35.0321 59.4854 35.3041C59.0454 35.5761 58.5334 35.7121 57.9494 35.7121C57.4614 35.7121 57.0294 35.6121 56.6534 35.4121C56.2774 35.2121 55.9894 34.9321 55.7894 34.5721V38.2081H54.7814ZM57.8294 34.8361C58.2214 34.8361 58.5694 34.7401 58.8734 34.5481C59.1854 34.3561 59.4254 34.0921 59.5934 33.7561C59.7694 33.4121 59.8574 33.0081 59.8574 32.5441C59.8574 32.0881 59.7694 31.6881 59.5934 31.3441C59.4254 31.0001 59.1854 30.7321 58.8734 30.5401C58.5694 30.3481 58.2214 30.2521 57.8294 30.2521C57.4294 30.2521 57.0774 30.3481 56.7734 30.5401C56.4694 30.7321 56.2334 31.0001 56.0654 31.3441C55.8974 31.6881 55.8134 32.0881 55.8134 32.5441C55.8134 33.0081 55.8974 33.4121 56.0654 33.7561C56.2334 34.0921 56.4694 34.3561 56.7734 34.5481C57.0774 34.7401 57.4294 34.8361 57.8294 34.8361ZM64.9568 35.7121C64.3968 35.7121 63.8968 35.5801 63.4568 35.3161C63.0168 35.0521 62.6728 34.6841 62.4248 34.2121C62.1768 33.7321 62.0528 33.1761 62.0528 32.5441C62.0528 31.9041 62.1728 31.3481 62.4128 30.8761C62.6608 30.4041 63.0048 30.0361 63.4448 29.7721C63.8928 29.5081 64.4048 29.3761 64.9808 29.3761C65.5728 29.3761 66.0768 29.5081 66.4928 29.7721C66.9088 30.0361 67.2248 30.3841 67.4408 30.8161C67.6648 31.2401 67.7768 31.7081 67.7768 32.2201C67.7768 32.3001 67.7768 32.3841 67.7768 32.4721C67.7768 32.5601 67.7728 32.6601 67.7648 32.7721H62.8088V31.9921H66.7808C66.7568 31.4401 66.5728 31.0081 66.2288 30.6961C65.8928 30.3841 65.4688 30.2281 64.9568 30.2281C64.6208 30.2281 64.3048 30.3081 64.0088 30.4681C63.7128 30.6201 63.4768 30.8481 63.3008 31.1521C63.1248 31.4481 63.0368 31.8201 63.0368 32.2681V32.6041C63.0368 33.1001 63.1248 33.5161 63.3008 33.8521C63.4848 34.1881 63.7208 34.4401 64.0088 34.6081C64.3048 34.7761 64.6208 34.8601 64.9568 34.8601C65.3808 34.8601 65.7288 34.7681 66.0008 34.5841C66.2808 34.3921 66.4848 34.1321 66.6128 33.8041H67.6088C67.5048 34.1721 67.3328 34.5001 67.0928 34.7881C66.8528 35.0681 66.5528 35.2921 66.1928 35.4601C65.8408 35.6281 65.4288 35.7121 64.9568 35.7121ZM71.3019 35.5681C70.9419 35.5681 70.6299 35.5121 70.3659 35.4001C70.1019 35.2881 69.8979 35.1001 69.7539 34.8361C69.6179 34.5641 69.5499 34.2001 69.5499 33.7441V30.3721H68.4939V29.5201H69.5499L69.6819 28.0561H70.5579V29.5201H72.3099V30.3721H70.5579V33.7441C70.5579 34.1201 70.6339 34.3761 70.7859 34.5121C70.9379 34.6401 71.2059 34.7041 71.5899 34.7041H72.2379V35.5681H71.3019ZM73.7212 35.5681V29.5201H74.7292V35.5681H73.7212ZM74.2252 28.2361C74.0252 28.2361 73.8572 28.1721 73.7212 28.0441C73.5932 27.9081 73.5292 27.7401 73.5292 27.5401C73.5292 27.3401 73.5932 27.1801 73.7212 27.0601C73.8572 26.9321 74.0252 26.8681 74.2252 26.8681C74.4172 26.8681 74.5812 26.9321 74.7172 27.0601C74.8532 27.1801 74.9212 27.3401 74.9212 27.5401C74.9212 27.7401 74.8532 27.9081 74.7172 28.0441C74.5812 28.1721 74.4172 28.2361 74.2252 28.2361ZM78.884 35.5681C78.524 35.5681 78.212 35.5121 77.948 35.4001C77.684 35.2881 77.48 35.1001 77.336 34.8361C77.2 34.5641 77.132 34.2001 77.132 33.7441V30.3721H76.076V29.5201H77.132L77.264 28.0561H78.14V29.5201H79.892V30.3721H78.14V33.7441C78.14 34.1201 78.216 34.3761 78.368 34.5121C78.52 34.6401 78.788 34.7041 79.172 34.7041H79.82V35.5681H78.884ZM81.3032 35.5681V29.5201H82.3112V35.5681H81.3032ZM81.8072 28.2361C81.6072 28.2361 81.4392 28.1721 81.3032 28.0441C81.1752 27.9081 81.1112 27.7401 81.1112 27.5401C81.1112 27.3401 81.1752 27.1801 81.3032 27.0601C81.4392 26.9321 81.6072 26.8681 81.8072 26.8681C81.9992 26.8681 82.1632 26.9321 82.2992 27.0601C82.4352 27.1801 82.5032 27.3401 82.5032 27.5401C82.5032 27.7401 82.4352 27.9081 82.2992 28.0441C82.1632 28.1721 81.9992 28.2361 81.8072 28.2361ZM85.83 35.5681L83.538 29.5201H84.594L86.418 34.5961L88.254 29.5201H89.286L86.994 35.5681H85.83ZM92.7654 35.7121C92.2054 35.7121 91.7054 35.5801 91.2654 35.3161C90.8254 35.0521 90.4814 34.6841 90.2334 34.2121C89.9854 33.7321 89.8614 33.1761 89.8614 32.5441C89.8614 31.9041 89.9814 31.3481 90.2214 30.8761C90.4694 30.4041 90.8134 30.0361 91.2534 29.7721C91.7014 29.5081 92.2134 29.3761 92.7894 29.3761C93.3814 29.3761 93.8854 29.5081 94.3014 29.7721C94.7174 30.0361 95.0334 30.3841 95.2494 30.8161C95.4734 31.2401 95.5854 31.7081 95.5854 32.2201C95.5854 32.3001 95.5854 32.3841 95.5854 32.4721C95.5854 32.5601 95.5814 32.6601 95.5734 32.7721H90.6174V31.9921H94.5894C94.5654 31.4401 94.3814 31.0081 94.0374 30.6961C93.7014 30.3841 93.2774 30.2281 92.7654 30.2281C92.4294 30.2281 92.1134 30.3081 91.8174 30.4681C91.5214 30.6201 91.2854 30.8481 91.1094 31.1521C90.9334 31.4481 90.8454 31.8201 90.8454 32.2681V32.6041C90.8454 33.1001 90.9334 33.5161 91.1094 33.8521C91.2934 34.1881 91.5294 34.4401 91.8174 34.6081C92.1134 34.7761 92.4294 34.8601 92.7654 34.8601C93.1894 34.8601 93.5374 34.7681 93.8094 34.5841C94.0894 34.3921 94.2934 34.1321 94.4214 33.8041H95.4174C95.3134 34.1721 95.1414 34.5001 94.9014 34.7881C94.6614 35.0681 94.3614 35.2921 94.0014 35.4601C93.6494 35.6281 93.2374 35.7121 92.7654 35.7121ZM100.181 35.5681V27.1681H105.377V27.9961H101.189V30.9241H105.017V31.7401H101.189V34.7401H105.377V35.5681H100.181ZM109.582 35.7121C108.998 35.7121 108.482 35.5761 108.034 35.3041C107.594 35.0241 107.254 34.6441 107.014 34.1641C106.774 33.6841 106.654 33.1401 106.654 32.5321C106.654 31.9241 106.774 31.3841 107.014 30.9121C107.254 30.4321 107.594 30.0561 108.034 29.7841C108.482 29.5121 109.002 29.3761 109.594 29.3761C110.082 29.3761 110.51 29.4761 110.878 29.6761C111.254 29.8761 111.546 30.1561 111.754 30.5161V26.9281H112.762V35.5681H111.85L111.754 34.5721C111.626 34.7721 111.462 34.9601 111.262 35.1361C111.062 35.3041 110.822 35.4441 110.542 35.5561C110.27 35.6601 109.95 35.7121 109.582 35.7121ZM109.69 34.8361C110.09 34.8361 110.442 34.7401 110.746 34.5481C111.05 34.3561 111.286 34.0921 111.454 33.7561C111.63 33.4121 111.718 33.0081 111.718 32.5441C111.718 32.0881 111.63 31.6881 111.454 31.3441C111.286 31.0001 111.05 30.7321 110.746 30.5401C110.442 30.3481 110.09 30.2521 109.69 30.2521C109.306 30.2521 108.958 30.3481 108.646 30.5401C108.342 30.7321 108.106 31.0001 107.938 31.3441C107.77 31.6881 107.686 32.0881 107.686 32.5441C107.686 33.0081 107.77 33.4121 107.938 33.7561C108.106 34.0921 108.342 34.3561 108.646 34.5481C108.958 34.7401 109.306 34.8361 109.69 34.8361ZM116.818 38.3521C116.274 38.3521 115.79 38.2801 115.366 38.1361C114.95 38.0001 114.626 37.7881 114.394 37.5001C114.162 37.2121 114.046 36.8561 114.046 36.4321C114.046 36.2481 114.082 36.0521 114.154 35.8441C114.234 35.6361 114.366 35.4321 114.55 35.2321C114.742 35.0321 115.01 34.8521 115.354 34.6921L116.05 35.1001C115.626 35.2761 115.35 35.4761 115.222 35.7001C115.094 35.9321 115.03 36.1441 115.03 36.3361C115.03 36.6001 115.106 36.8201 115.258 36.9961C115.41 37.1721 115.622 37.3041 115.894 37.3921C116.166 37.4801 116.474 37.5241 116.818 37.5241C117.162 37.5241 117.458 37.4721 117.706 37.3681C117.954 37.2721 118.146 37.1361 118.282 36.9601C118.418 36.7921 118.486 36.5881 118.486 36.3481C118.486 36.0681 118.382 35.8321 118.174 35.6401C117.966 35.4561 117.57 35.3481 116.986 35.3161C116.514 35.2841 116.118 35.2401 115.798 35.1841C115.478 35.1281 115.214 35.0641 115.006 34.9921C114.798 34.9121 114.622 34.8241 114.478 34.7281C114.342 34.6321 114.218 34.5321 114.106 34.4281V34.1521L115.27 33.0001L116.146 33.3121L114.946 34.3921L115.102 33.9721C115.19 34.0361 115.274 34.0961 115.354 34.1521C115.434 34.2081 115.542 34.2561 115.678 34.2961C115.814 34.3361 116.002 34.3721 116.242 34.4041C116.49 34.4361 116.814 34.4681 117.214 34.5001C117.766 34.5401 118.206 34.6361 118.534 34.7881C118.87 34.9401 119.11 35.1441 119.254 35.4001C119.406 35.6561 119.482 35.9601 119.482 36.3121C119.482 36.6561 119.386 36.9801 119.194 37.2841C119.01 37.5961 118.722 37.8521 118.33 38.0521C117.938 38.2521 117.434 38.3521 116.818 38.3521ZM116.806 33.6721C116.302 33.6721 115.87 33.5761 115.51 33.3841C115.158 33.1921 114.89 32.9361 114.706 32.6161C114.522 32.2881 114.43 31.9241 114.43 31.5241C114.43 31.1241 114.522 30.7641 114.706 30.4441C114.898 30.1241 115.17 29.8681 115.522 29.6761C115.874 29.4761 116.302 29.3761 116.806 29.3761C117.31 29.3761 117.738 29.4761 118.09 29.6761C118.442 29.8681 118.71 30.1241 118.894 30.4441C119.078 30.7641 119.17 31.1241 119.17 31.5241C119.17 31.9241 119.078 32.2881 118.894 32.6161C118.71 32.9361 118.442 33.1921 118.09 33.3841C117.738 33.5761 117.31 33.6721 116.806 33.6721ZM116.806 32.8441C117.238 32.8441 117.578 32.7321 117.826 32.5081C118.074 32.2841 118.198 31.9561 118.198 31.5241C118.198 31.1001 118.074 30.7761 117.826 30.5521C117.578 30.3281 117.238 30.2161 116.806 30.2161C116.382 30.2161 116.038 30.3281 115.774 30.5521C115.518 30.7761 115.39 31.1001 115.39 31.5241C115.39 31.9561 115.518 32.2841 115.774 32.5081C116.03 32.7321 116.374 32.8441 116.806 32.8441ZM117.79 30.3721L117.49 29.5201H119.962V30.2761L117.79 30.3721ZM123.539 35.7121C122.979 35.7121 122.479 35.5801 122.039 35.3161C121.599 35.0521 121.255 34.6841 121.007 34.2121C120.759 33.7321 120.635 33.1761 120.635 32.5441C120.635 31.9041 120.755 31.3481 120.995 30.8761C121.243 30.4041 121.587 30.0361 122.027 29.7721C122.475 29.5081 122.987 29.3761 123.563 29.3761C124.155 29.3761 124.659 29.5081 125.075 29.7721C125.491 30.0361 125.807 30.3841 126.023 30.8161C126.247 31.2401 126.359 31.7081 126.359 32.2201C126.359 32.3001 126.359 32.3841 126.359 32.4721C126.359 32.5601 126.355 32.6601 126.347 32.7721H121.391V31.9921H125.363C125.339 31.4401 125.155 31.0081 124.811 30.6961C124.475 30.3841 124.051 30.2281 123.539 30.2281C123.203 30.2281 122.887 30.3081 122.591 30.4681C122.295 30.6201 122.059 30.8481 121.883 31.1521C121.707 31.4481 121.619 31.8201 121.619 32.2681V32.6041C121.619 33.1001 121.707 33.5161 121.883 33.8521C122.067 34.1881 122.303 34.4401 122.591 34.6081C122.887 34.7761 123.203 34.8601 123.539 34.8601C123.963 34.8601 124.311 34.7681 124.583 34.5841C124.863 34.3921 125.067 34.1321 125.195 33.8041H126.191C126.087 34.1721 125.915 34.5001 125.675 34.7881C125.435 35.0681 125.135 35.2921 124.775 35.4601C124.423 35.6281 124.011 35.7121 123.539 35.7121Z" fill="white"/>
</svg>
