<svg width="131" height="37" viewBox="0 0 131 37" fill="none" xmlns="http://www.w3.org/2000/svg">
<path d="M1 14.7541V0.409836H2.67251L10.0992 11.9057V0.409836H11.7718V14.7541H10.0992L2.67251 3.2582V14.7541H1Z" fill="white"/>
<path d="M19.0681 15C18.1257 15 17.2894 14.7814 16.5594 14.3443C15.8293 13.8934 15.2519 13.2719 14.8271 12.4795C14.4156 11.6872 14.2099 10.7514 14.2099 9.67213C14.2099 8.60656 14.4156 7.6776 14.8271 6.88525C15.2386 6.07923 15.8094 5.45765 16.5395 5.02049C17.2828 4.56967 18.139 4.34426 19.108 4.34426C20.0637 4.34426 20.8867 4.56967 21.5769 5.02049C22.2804 5.45765 22.818 6.03825 23.1897 6.7623C23.5613 7.48634 23.7472 8.26503 23.7472 9.09836C23.7472 9.24863 23.7405 9.39891 23.7273 9.54918C23.7273 9.69945 23.7273 9.87022 23.7273 10.0615H15.8625C15.9023 10.8402 16.0749 11.4891 16.3802 12.0082C16.6988 12.5137 17.0903 12.8962 17.5549 13.1557C18.0328 13.4153 18.5372 13.5451 19.0681 13.5451C19.7584 13.5451 20.3358 13.3811 20.8004 13.0533C21.265 12.7254 21.6035 12.2814 21.8158 11.7213H23.4684C23.203 12.6639 22.6919 13.4495 21.9353 14.0779C21.192 14.6926 20.2362 15 19.0681 15ZM19.0681 5.79918C18.2717 5.79918 17.5616 6.05191 16.9377 6.55738C16.3271 7.04918 15.9753 7.77322 15.8824 8.72951H22.0946C22.0548 7.81421 21.7495 7.09699 21.1787 6.57787C20.6079 6.05874 19.9044 5.79918 19.0681 5.79918Z" fill="white"/>
<path d="M24.5018 14.7541L27.9264 9.67213L24.5018 4.59016H26.3137L29.0813 8.79098L31.8688 4.59016H33.6608L30.2361 9.67213L33.6608 14.7541H31.8688L29.0813 10.5533L26.3137 14.7541H24.5018Z" fill="white"/>
<path d="M39.3164 14.7541C38.4137 14.7541 37.7036 14.5287 37.1859 14.0779C36.6682 13.627 36.4094 12.8142 36.4094 11.6393V6.04508H34.697V4.59016H36.4094L36.6284 2.15164H38.0819V4.59016H40.9889V6.04508H38.0819V11.6393C38.0819 12.2814 38.208 12.7186 38.4602 12.9508C38.7124 13.1694 39.1571 13.2787 39.7942 13.2787H40.8296V14.7541H39.3164Z" fill="white"/>
<path d="M51.3498 14.7746L47.5269 0.409836H49.3189L52.3254 12.7254L55.7501 0.409836H57.6018L60.9269 12.7254L63.9733 0.409836H65.7652L61.8627 14.7541H59.9513L56.6262 2.90984L53.2214 14.7541L51.3498 14.7746Z" fill="white"/>
<path d="M69.9459 15C69.1229 15 68.4393 14.8566 67.8951 14.5697C67.3509 14.2828 66.946 13.9003 66.6805 13.4221C66.415 12.944 66.2823 12.4249 66.2823 11.8648C66.2823 10.8265 66.6672 10.0273 67.4371 9.46721C68.207 8.9071 69.2557 8.62705 70.583 8.62705H73.2511V8.5041C73.2511 7.61612 73.0254 6.94672 72.5741 6.4959C72.1228 6.03142 71.5188 5.79918 70.7622 5.79918C70.1118 5.79918 69.5477 5.96995 69.0698 6.31148C68.6052 6.63934 68.3132 7.12432 68.1937 7.76639H66.4814C66.5478 7.02869 66.7867 6.4071 67.1982 5.90164C67.623 5.39617 68.1473 5.01366 68.7712 4.7541C69.395 4.48087 70.0587 4.34426 70.7622 4.34426C72.1427 4.34426 73.1781 4.72678 73.8683 5.4918C74.5718 6.24317 74.9236 7.24727 74.9236 8.5041V14.7541H73.4303L73.3307 12.9303C73.052 13.5041 72.6405 13.9959 72.0963 14.4057C71.5653 14.8019 70.8485 15 69.9459 15ZM70.2047 13.5451C70.8419 13.5451 71.3861 13.3743 71.8374 13.0328C72.302 12.6913 72.6538 12.2473 72.8927 11.7008C73.1316 11.1544 73.2511 10.5806 73.2511 9.97951V9.95902H70.7224C69.7402 9.95902 69.0433 10.1366 68.6318 10.4918C68.2336 10.8333 68.0345 11.2637 68.0345 11.7828C68.0345 12.3156 68.2203 12.7459 68.592 13.0738C68.9769 13.388 69.5145 13.5451 70.2047 13.5451Z" fill="white"/>
<path d="M79.9105 14.7541L76.1673 4.59016H77.9194L80.8861 13.0943L83.8727 4.59016H85.5851L81.8418 14.7541H79.9105Z" fill="white"/>
<path d="M91.381 15C90.4385 15 89.6023 14.7814 88.8722 14.3443C88.1422 13.8934 87.5647 13.2719 87.14 12.4795C86.7285 11.6872 86.5227 10.7514 86.5227 9.67213C86.5227 8.60656 86.7285 7.6776 87.14 6.88525C87.5515 6.07923 88.1222 5.45765 88.8523 5.02049C89.5956 4.56967 90.4518 4.34426 91.4208 4.34426C92.3765 4.34426 93.1995 4.56967 93.8897 5.02049C94.5933 5.45765 95.1309 6.03825 95.5025 6.7623C95.8742 7.48634 96.06 8.26503 96.06 9.09836C96.06 9.24863 96.0534 9.39891 96.0401 9.54918C96.0401 9.69945 96.0401 9.87022 96.0401 10.0615H88.1753C88.2152 10.8402 88.3877 11.4891 88.693 12.0082C89.0116 12.5137 89.4032 12.8962 89.8678 13.1557C90.3456 13.4153 90.85 13.5451 91.381 13.5451C92.0712 13.5451 92.6486 13.3811 93.1132 13.0533C93.5778 12.7254 93.9163 12.2814 94.1287 11.7213H95.7813C95.5158 12.6639 95.0048 13.4495 94.2481 14.0779C93.5048 14.6926 92.5491 15 91.381 15ZM91.381 5.79918C90.5846 5.79918 89.8744 6.05191 89.2505 6.55738C88.6399 7.04918 88.2882 7.77322 88.1953 8.72951H94.4074C94.3676 7.81421 94.0623 7.09699 93.4915 6.57787C92.9208 6.05874 92.2172 5.79918 91.381 5.79918Z" fill="white"/>
<path d="M102.77 14.7541L107.907 0.409836H109.679L114.796 14.7541H113.024L111.749 11.0656H105.816L104.522 14.7541H102.77ZM106.314 9.67213H111.252L108.783 2.58197L106.314 9.67213Z" fill="white"/>
<path d="M120.704 15C119.721 15 118.859 14.7678 118.115 14.3033C117.385 13.8388 116.814 13.2036 116.403 12.3975C116.005 11.5915 115.806 10.6762 115.806 9.65164C115.806 8.62705 116.011 7.71858 116.423 6.92623C116.834 6.12022 117.405 5.4918 118.135 5.04098C118.865 4.5765 119.728 4.34426 120.724 4.34426C121.533 4.34426 122.25 4.51503 122.874 4.85656C123.498 5.19809 123.982 5.67623 124.327 6.29098V0H126V14.7541H124.487L124.327 13.0738C124.009 13.5656 123.551 14.0096 122.954 14.4057C122.356 14.8019 121.606 15 120.704 15ZM120.883 13.5041C121.547 13.5041 122.131 13.347 122.635 13.0328C123.153 12.7049 123.551 12.2541 123.83 11.6803C124.122 11.1066 124.268 10.4372 124.268 9.67213C124.268 8.9071 124.122 8.23771 123.83 7.66393C123.551 7.09016 123.153 6.64618 122.635 6.33197C122.131 6.0041 121.547 5.84016 120.883 5.84016C120.232 5.84016 119.648 6.0041 119.131 6.33197C118.626 6.64618 118.228 7.09016 117.936 7.66393C117.657 8.23771 117.518 8.9071 117.518 9.67213C117.518 10.4372 117.657 11.1066 117.936 11.6803C118.228 12.2541 118.626 12.7049 119.131 13.0328C119.648 13.347 120.232 13.5041 120.883 13.5041Z" fill="white"/>
<path d="M2.976 32.5681V29.3761L0.24 24.1681H1.38L3.636 28.7161H3.336L5.58 24.1681H6.708L3.984 29.3761V32.5681H2.976ZM9.45797 32.7121C8.89797 32.7121 8.39397 32.5841 7.94597 32.3281C7.49797 32.0641 7.14597 31.6961 6.88997 31.2241C6.63397 30.7441 6.50597 30.1881 6.50597 29.5561C6.50597 28.9081 6.63397 28.3481 6.88997 27.8761C7.15397 27.3961 7.50997 27.0281 7.95797 26.7721C8.41397 26.5081 8.92197 26.3761 9.48197 26.3761C10.058 26.3761 10.566 26.5081 11.006 26.7721C11.454 27.0281 11.806 27.3961 12.062 27.8761C12.326 28.3481 12.458 28.9041 12.458 29.5441C12.458 30.1841 12.326 30.7441 12.062 31.2241C11.798 31.6961 11.442 32.0641 10.994 32.3281C10.546 32.5841 10.034 32.7121 9.45797 32.7121ZM9.46997 31.8481C9.81397 31.8481 10.134 31.7641 10.43 31.5961C10.726 31.4201 10.966 31.1601 11.15 30.8161C11.334 30.4721 11.426 30.0481 11.426 29.5441C11.426 29.0321 11.334 28.6081 11.15 28.2721C10.974 27.9281 10.738 27.6721 10.442 27.5041C10.154 27.3281 9.83397 27.2401 9.48197 27.2401C9.14597 27.2401 8.82597 27.3281 8.52197 27.5041C8.22597 27.6721 7.98597 27.9281 7.80197 28.2721C7.62597 28.6081 7.53797 29.0321 7.53797 29.5441C7.53797 30.0481 7.62597 30.4721 7.80197 30.8161C7.98597 31.1601 8.22197 31.4201 8.50997 31.5961C8.80597 31.7641 9.12597 31.8481 9.46997 31.8481ZM16.0673 32.7121C15.6033 32.7121 15.1953 32.6201 14.8433 32.4361C14.4993 32.2521 14.2313 31.9681 14.0393 31.5841C13.8553 31.2001 13.7633 30.7201 13.7633 30.1441V26.5201H14.7713V30.0361C14.7713 30.6361 14.9033 31.0881 15.1673 31.3921C15.4313 31.6961 15.8033 31.8481 16.2833 31.8481C16.6193 31.8481 16.9233 31.7681 17.1953 31.6081C17.4673 31.4401 17.6793 31.2041 17.8313 30.9001C17.9913 30.5881 18.0713 30.2041 18.0713 29.7481V26.5201H19.0793V32.5681H18.1673L18.1073 31.5121C17.9233 31.8881 17.6513 32.1841 17.2913 32.4001C16.9313 32.6081 16.5233 32.7121 16.0673 32.7121ZM20.7502 32.5681V26.5201H21.6622L21.7342 27.6721C21.8702 27.4001 22.0422 27.1681 22.2502 26.9761C22.4662 26.7841 22.7222 26.6361 23.0182 26.5321C23.3222 26.4281 23.6662 26.3761 24.0502 26.3761V27.4321H23.6782C23.4222 27.4321 23.1782 27.4681 22.9462 27.5401C22.7142 27.6041 22.5062 27.7121 22.3222 27.8641C22.1462 28.0161 22.0062 28.2241 21.9022 28.4881C21.8062 28.7441 21.7582 29.0641 21.7582 29.4481V32.5681H20.7502ZM32.0871 32.7121C31.2711 32.7121 30.5631 32.5321 29.9631 32.1721C29.3711 31.8041 28.9151 31.2961 28.5951 30.6481C28.2751 29.9921 28.1151 29.2321 28.1151 28.3681C28.1151 27.5041 28.2751 26.7481 28.5951 26.1001C28.9151 25.4441 29.3711 24.9361 29.9631 24.5761C30.5631 24.2081 31.2711 24.0241 32.0871 24.0241C33.0471 24.0241 33.8271 24.2521 34.4271 24.7081C35.0271 25.1641 35.4111 25.8081 35.5791 26.6401H34.4631C34.3351 26.1201 34.0751 25.7041 33.6831 25.3921C33.2911 25.0721 32.7591 24.9121 32.0871 24.9121C31.4951 24.9121 30.9751 25.0521 30.5271 25.3321C30.0871 25.6041 29.7471 26.0001 29.5071 26.5201C29.2671 27.0321 29.1471 27.6481 29.1471 28.3681C29.1471 29.0881 29.2671 29.7081 29.5071 30.2281C29.7471 30.7401 30.0871 31.1361 30.5271 31.4161C30.9751 31.6881 31.4951 31.8241 32.0871 31.8241C32.7591 31.8241 33.2911 31.6721 33.6831 31.3681C34.0751 31.0561 34.3351 30.6441 34.4631 30.1321H35.5791C35.4111 30.9401 35.0271 31.5721 34.4271 32.0281C33.8271 32.4841 33.0471 32.7121 32.0871 32.7121ZM39.6806 32.7121C39.1206 32.7121 38.6166 32.5841 38.1686 32.3281C37.7206 32.0641 37.3686 31.6961 37.1126 31.2241C36.8566 30.7441 36.7286 30.1881 36.7286 29.5561C36.7286 28.9081 36.8566 28.3481 37.1126 27.8761C37.3766 27.3961 37.7326 27.0281 38.1806 26.7721C38.6366 26.5081 39.1446 26.3761 39.7046 26.3761C40.2806 26.3761 40.7886 26.5081 41.2286 26.7721C41.6766 27.0281 42.0286 27.3961 42.2846 27.8761C42.5486 28.3481 42.6806 28.9041 42.6806 29.5441C42.6806 30.1841 42.5486 30.7441 42.2846 31.2241C42.0206 31.6961 41.6646 32.0641 41.2166 32.3281C40.7686 32.5841 40.2566 32.7121 39.6806 32.7121ZM39.6926 31.8481C40.0366 31.8481 40.3566 31.7641 40.6526 31.5961C40.9486 31.4201 41.1886 31.1601 41.3726 30.8161C41.5566 30.4721 41.6486 30.0481 41.6486 29.5441C41.6486 29.0321 41.5566 28.6081 41.3726 28.2721C41.1966 27.9281 40.9606 27.6721 40.6646 27.5041C40.3766 27.3281 40.0566 27.2401 39.7046 27.2401C39.3686 27.2401 39.0486 27.3281 38.7446 27.5041C38.4486 27.6721 38.2086 27.9281 38.0246 28.2721C37.8486 28.6081 37.7606 29.0321 37.7606 29.5441C37.7606 30.0481 37.8486 30.4721 38.0246 30.8161C38.2086 31.1601 38.4446 31.4201 38.7326 31.5961C39.0286 31.7641 39.3486 31.8481 39.6926 31.8481ZM44.0939 32.5681V26.5201H45.0059L45.0659 27.3841C45.2579 27.0721 45.5139 26.8281 45.8339 26.6521C46.1619 26.4681 46.5179 26.3761 46.9019 26.3761C47.2139 26.3761 47.4939 26.4201 47.7419 26.5081C47.9979 26.5881 48.2219 26.7161 48.4139 26.8921C48.6139 27.0601 48.7699 27.2761 48.8819 27.5401C49.0899 27.1721 49.3779 26.8881 49.7459 26.6881C50.1139 26.4801 50.5019 26.3761 50.9099 26.3761C51.3819 26.3761 51.7899 26.4721 52.1339 26.6641C52.4779 26.8481 52.7459 27.1321 52.9379 27.5161C53.1299 27.8921 53.2259 28.3721 53.2259 28.9561V32.5681H52.2299V29.0641C52.2299 28.4561 52.1059 28.0001 51.8579 27.6961C51.6099 27.3921 51.2579 27.2401 50.8019 27.2401C50.4899 27.2401 50.2099 27.3241 49.9619 27.4921C49.7139 27.6521 49.5179 27.8881 49.3739 28.2001C49.2299 28.5121 49.1579 28.8961 49.1579 29.3521V32.5681H48.1499V29.0641C48.1499 28.4561 48.0259 28.0001 47.7779 27.6961C47.5299 27.3921 47.1819 27.2401 46.7339 27.2401C46.4299 27.2401 46.1539 27.3241 45.9059 27.4921C45.6579 27.6521 45.4619 27.8881 45.3179 28.2001C45.1739 28.5121 45.1019 28.8961 45.1019 29.3521V32.5681H44.0939ZM54.7814 35.2081V26.5201H55.6934L55.7774 27.5041C55.9054 27.3121 56.0694 27.1321 56.2694 26.9641C56.4694 26.7881 56.7094 26.6481 56.9894 26.5441C57.2694 26.4321 57.5934 26.3761 57.9614 26.3761C58.5454 26.3761 59.0534 26.5161 59.4854 26.7961C59.9254 27.0761 60.2654 27.4561 60.5054 27.9361C60.7534 28.4081 60.8774 28.9481 60.8774 29.5561C60.8774 30.1641 60.7534 30.7081 60.5054 31.1881C60.2654 31.6601 59.9254 32.0321 59.4854 32.3041C59.0454 32.5761 58.5334 32.7121 57.9494 32.7121C57.4614 32.7121 57.0294 32.6121 56.6534 32.4121C56.2774 32.2121 55.9894 31.9321 55.7894 31.5721V35.2081H54.7814ZM57.8294 31.8361C58.2214 31.8361 58.5694 31.7401 58.8734 31.5481C59.1854 31.3561 59.4254 31.0921 59.5934 30.7561C59.7694 30.4121 59.8574 30.0081 59.8574 29.5441C59.8574 29.0881 59.7694 28.6881 59.5934 28.3441C59.4254 28.0001 59.1854 27.7321 58.8734 27.5401C58.5694 27.3481 58.2214 27.2521 57.8294 27.2521C57.4294 27.2521 57.0774 27.3481 56.7734 27.5401C56.4694 27.7321 56.2334 28.0001 56.0654 28.3441C55.8974 28.6881 55.8134 29.0881 55.8134 29.5441C55.8134 30.0081 55.8974 30.4121 56.0654 30.7561C56.2334 31.0921 56.4694 31.3561 56.7734 31.5481C57.0774 31.7401 57.4294 31.8361 57.8294 31.8361ZM64.9568 32.7121C64.3968 32.7121 63.8968 32.5801 63.4568 32.3161C63.0168 32.0521 62.6728 31.6841 62.4248 31.2121C62.1768 30.7321 62.0528 30.1761 62.0528 29.5441C62.0528 28.9041 62.1728 28.3481 62.4128 27.8761C62.6608 27.4041 63.0048 27.0361 63.4448 26.7721C63.8928 26.5081 64.4048 26.3761 64.9808 26.3761C65.5728 26.3761 66.0768 26.5081 66.4928 26.7721C66.9088 27.0361 67.2248 27.3841 67.4408 27.8161C67.6648 28.2401 67.7768 28.7081 67.7768 29.2201C67.7768 29.3001 67.7768 29.3841 67.7768 29.4721C67.7768 29.5601 67.7728 29.6601 67.7648 29.7721H62.8088V28.9921H66.7808C66.7568 28.4401 66.5728 28.0081 66.2288 27.6961C65.8928 27.3841 65.4688 27.2281 64.9568 27.2281C64.6208 27.2281 64.3048 27.3081 64.0088 27.4681C63.7128 27.6201 63.4768 27.8481 63.3008 28.1521C63.1248 28.4481 63.0368 28.8201 63.0368 29.2681V29.6041C63.0368 30.1001 63.1248 30.5161 63.3008 30.8521C63.4848 31.1881 63.7208 31.4401 64.0088 31.6081C64.3048 31.7761 64.6208 31.8601 64.9568 31.8601C65.3808 31.8601 65.7288 31.7681 66.0008 31.5841C66.2808 31.3921 66.4848 31.1321 66.6128 30.8041H67.6088C67.5048 31.1721 67.3328 31.5001 67.0928 31.7881C66.8528 32.0681 66.5528 32.2921 66.1928 32.4601C65.8408 32.6281 65.4288 32.7121 64.9568 32.7121ZM71.3019 32.5681C70.9419 32.5681 70.6299 32.5121 70.3659 32.4001C70.1019 32.2881 69.8979 32.1001 69.7539 31.8361C69.6179 31.5641 69.5499 31.2001 69.5499 30.7441V27.3721H68.4939V26.5201H69.5499L69.6819 25.0561H70.5579V26.5201H72.3099V27.3721H70.5579V30.7441C70.5579 31.1201 70.6339 31.3761 70.7859 31.5121C70.9379 31.6401 71.2059 31.7041 71.5899 31.7041H72.2379V32.5681H71.3019ZM73.7212 32.5681V26.5201H74.7292V32.5681H73.7212ZM74.2252 25.2361C74.0252 25.2361 73.8572 25.1721 73.7212 25.0441C73.5932 24.9081 73.5292 24.7401 73.5292 24.5401C73.5292 24.3401 73.5932 24.1801 73.7212 24.0601C73.8572 23.9321 74.0252 23.8681 74.2252 23.8681C74.4172 23.8681 74.5812 23.9321 74.7172 24.0601C74.8532 24.1801 74.9212 24.3401 74.9212 24.5401C74.9212 24.7401 74.8532 24.9081 74.7172 25.0441C74.5812 25.1721 74.4172 25.2361 74.2252 25.2361ZM78.884 32.5681C78.524 32.5681 78.212 32.5121 77.948 32.4001C77.684 32.2881 77.48 32.1001 77.336 31.8361C77.2 31.5641 77.132 31.2001 77.132 30.7441V27.3721H76.076V26.5201H77.132L77.264 25.0561H78.14V26.5201H79.892V27.3721H78.14V30.7441C78.14 31.1201 78.216 31.3761 78.368 31.5121C78.52 31.6401 78.788 31.7041 79.172 31.7041H79.82V32.5681H78.884ZM81.3032 32.5681V26.5201H82.3112V32.5681H81.3032ZM81.8072 25.2361C81.6072 25.2361 81.4392 25.1721 81.3032 25.0441C81.1752 24.9081 81.1112 24.7401 81.1112 24.5401C81.1112 24.3401 81.1752 24.1801 81.3032 24.0601C81.4392 23.9321 81.6072 23.8681 81.8072 23.8681C81.9992 23.8681 82.1632 23.9321 82.2992 24.0601C82.4352 24.1801 82.5032 24.3401 82.5032 24.5401C82.5032 24.7401 82.4352 24.9081 82.2992 25.0441C82.1632 25.1721 81.9992 25.2361 81.8072 25.2361ZM85.83 32.5681L83.538 26.5201H84.594L86.418 31.5961L88.254 26.5201H89.286L86.994 32.5681H85.83ZM92.7654 32.7121C92.2054 32.7121 91.7054 32.5801 91.2654 32.3161C90.8254 32.0521 90.4814 31.6841 90.2334 31.2121C89.9854 30.7321 89.8614 30.1761 89.8614 29.5441C89.8614 28.9041 89.9814 28.3481 90.2214 27.8761C90.4694 27.4041 90.8134 27.0361 91.2534 26.7721C91.7014 26.5081 92.2134 26.3761 92.7894 26.3761C93.3814 26.3761 93.8854 26.5081 94.3014 26.7721C94.7174 27.0361 95.0334 27.3841 95.2494 27.8161C95.4734 28.2401 95.5854 28.7081 95.5854 29.2201C95.5854 29.3001 95.5854 29.3841 95.5854 29.4721C95.5854 29.5601 95.5814 29.6601 95.5734 29.7721H90.6174V28.9921H94.5894C94.5654 28.4401 94.3814 28.0081 94.0374 27.6961C93.7014 27.3841 93.2774 27.2281 92.7654 27.2281C92.4294 27.2281 92.1134 27.3081 91.8174 27.4681C91.5214 27.6201 91.2854 27.8481 91.1094 28.1521C90.9334 28.4481 90.8454 28.8201 90.8454 29.2681V29.6041C90.8454 30.1001 90.9334 30.5161 91.1094 30.8521C91.2934 31.1881 91.5294 31.4401 91.8174 31.6081C92.1134 31.7761 92.4294 31.8601 92.7654 31.8601C93.1894 31.8601 93.5374 31.7681 93.8094 31.5841C94.0894 31.3921 94.2934 31.1321 94.4214 30.8041H95.4174C95.3134 31.1721 95.1414 31.5001 94.9014 31.7881C94.6614 32.0681 94.3614 32.2921 94.0014 32.4601C93.6494 32.6281 93.2374 32.7121 92.7654 32.7121ZM100.181 32.5681V24.1681H105.377V24.9961H101.189V27.9241H105.017V28.7401H101.189V31.7401H105.377V32.5681H100.181ZM109.582 32.7121C108.998 32.7121 108.482 32.5761 108.034 32.3041C107.594 32.0241 107.254 31.6441 107.014 31.1641C106.774 30.6841 106.654 30.1401 106.654 29.5321C106.654 28.9241 106.774 28.3841 107.014 27.9121C107.254 27.4321 107.594 27.0561 108.034 26.7841C108.482 26.5121 109.002 26.3761 109.594 26.3761C110.082 26.3761 110.51 26.4761 110.878 26.6761C111.254 26.8761 111.546 27.1561 111.754 27.5161V23.9281H112.762V32.5681H111.85L111.754 31.5721C111.626 31.7721 111.462 31.9601 111.262 32.1361C111.062 32.3041 110.822 32.4441 110.542 32.5561C110.27 32.6601 109.95 32.7121 109.582 32.7121ZM109.69 31.8361C110.09 31.8361 110.442 31.7401 110.746 31.5481C111.05 31.3561 111.286 31.0921 111.454 30.7561C111.63 30.4121 111.718 30.0081 111.718 29.5441C111.718 29.0881 111.63 28.6881 111.454 28.3441C111.286 28.0001 111.05 27.7321 110.746 27.5401C110.442 27.3481 110.09 27.2521 109.69 27.2521C109.306 27.2521 108.958 27.3481 108.646 27.5401C108.342 27.7321 108.106 28.0001 107.938 28.3441C107.77 28.6881 107.686 29.0881 107.686 29.5441C107.686 30.0081 107.77 30.4121 107.938 30.7561C108.106 31.0921 108.342 31.3561 108.646 31.5481C108.958 31.7401 109.306 31.8361 109.69 31.8361ZM116.818 35.3521C116.274 35.3521 115.79 35.2801 115.366 35.1361C114.95 35.0001 114.626 34.7881 114.394 34.5001C114.162 34.2121 114.046 33.8561 114.046 33.4321C114.046 33.2481 114.082 33.0521 114.154 32.8441C114.234 32.6361 114.366 32.4321 114.55 32.2321C114.742 32.0321 115.01 31.8521 115.354 31.6921L116.05 32.1001C115.626 32.2761 115.35 32.4761 115.222 32.7001C115.094 32.9321 115.03 33.1441 115.03 33.3361C115.03 33.6001 115.106 33.8201 115.258 33.9961C115.41 34.1721 115.622 34.3041 115.894 34.3921C116.166 34.4801 116.474 34.5241 116.818 34.5241C117.162 34.5241 117.458 34.4721 117.706 34.3681C117.954 34.2721 118.146 34.1361 118.282 33.9601C118.418 33.7921 118.486 33.5881 118.486 33.3481C118.486 33.0681 118.382 32.8321 118.174 32.6401C117.966 32.4561 117.57 32.3481 116.986 32.3161C116.514 32.2841 116.118 32.2401 115.798 32.1841C115.478 32.1281 115.214 32.0641 115.006 31.9921C114.798 31.9121 114.622 31.8241 114.478 31.7281C114.342 31.6321 114.218 31.5321 114.106 31.4281V31.1521L115.27 30.0001L116.146 30.3121L114.946 31.3921L115.102 30.9721C115.19 31.0361 115.274 31.0961 115.354 31.1521C115.434 31.2081 115.542 31.2561 115.678 31.2961C115.814 31.3361 116.002 31.3721 116.242 31.4041C116.49 31.4361 116.814 31.4681 117.214 31.5001C117.766 31.5401 118.206 31.6361 118.534 31.7881C118.87 31.9401 119.11 32.1441 119.254 32.4001C119.406 32.6561 119.482 32.9601 119.482 33.3121C119.482 33.6561 119.386 33.9801 119.194 34.2841C119.01 34.5961 118.722 34.8521 118.33 35.0521C117.938 35.2521 117.434 35.3521 116.818 35.3521ZM116.806 30.6721C116.302 30.6721 115.87 30.5761 115.51 30.3841C115.158 30.1921 114.89 29.9361 114.706 29.6161C114.522 29.2881 114.43 28.9241 114.43 28.5241C114.43 28.1241 114.522 27.7641 114.706 27.4441C114.898 27.1241 115.17 26.8681 115.522 26.6761C115.874 26.4761 116.302 26.3761 116.806 26.3761C117.31 26.3761 117.738 26.4761 118.09 26.6761C118.442 26.8681 118.71 27.1241 118.894 27.4441C119.078 27.7641 119.17 28.1241 119.17 28.5241C119.17 28.9241 119.078 29.2881 118.894 29.6161C118.71 29.9361 118.442 30.1921 118.09 30.3841C117.738 30.5761 117.31 30.6721 116.806 30.6721ZM116.806 29.8441C117.238 29.8441 117.578 29.7321 117.826 29.5081C118.074 29.2841 118.198 28.9561 118.198 28.5241C118.198 28.1001 118.074 27.7761 117.826 27.5521C117.578 27.3281 117.238 27.2161 116.806 27.2161C116.382 27.2161 116.038 27.3281 115.774 27.5521C115.518 27.7761 115.39 28.1001 115.39 28.5241C115.39 28.9561 115.518 29.2841 115.774 29.5081C116.03 29.7321 116.374 29.8441 116.806 29.8441ZM117.79 27.3721L117.49 26.5201H119.962V27.2761L117.79 27.3721ZM123.539 32.7121C122.979 32.7121 122.479 32.5801 122.039 32.3161C121.599 32.0521 121.255 31.6841 121.007 31.2121C120.759 30.7321 120.635 30.1761 120.635 29.5441C120.635 28.9041 120.755 28.3481 120.995 27.8761C121.243 27.4041 121.587 27.0361 122.027 26.7721C122.475 26.5081 122.987 26.3761 123.563 26.3761C124.155 26.3761 124.659 26.5081 125.075 26.7721C125.491 27.0361 125.807 27.3841 126.023 27.8161C126.247 28.2401 126.359 28.7081 126.359 29.2201C126.359 29.3001 126.359 29.3841 126.359 29.4721C126.359 29.5601 126.355 29.6601 126.347 29.7721H121.391V28.9921H125.363C125.339 28.4401 125.155 28.0081 124.811 27.6961C124.475 27.3841 124.051 27.2281 123.539 27.2281C123.203 27.2281 122.887 27.3081 122.591 27.4681C122.295 27.6201 122.059 27.8481 121.883 28.1521C121.707 28.4481 121.619 28.8201 121.619 29.2681V29.6041C121.619 30.1001 121.707 30.5161 121.883 30.8521C122.067 31.1881 122.303 31.4401 122.591 31.6081C122.887 31.7761 123.203 31.8601 123.539 31.8601C123.963 31.8601 124.311 31.7681 124.583 31.5841C124.863 31.3921 125.067 31.1321 125.195 30.8041H126.191C126.087 31.1721 125.915 31.5001 125.675 31.7881C125.435 32.0681 125.135 32.2921 124.775 32.4601C124.423 32.6281 124.011 32.7121 123.539 32.7121Z" fill="white"/>
</svg>
