<svg width="192" height="44" viewBox="0 0 192 44" fill="none" xmlns="http://www.w3.org/2000/svg">
<path fill-rule="evenodd" clip-rule="evenodd" d="M65.2133 31.1317C54.6606 28.7272 37.0401 38.5513 25.8997 37.8949C17.7602 37.4154 4.87938 28.1713 6.89371 21.1995C5.20638 30.6426 10.6113 38.5513 10.6113 38.5513C-3.28945 26.0128 -2.08181 11.7154 5.92185 4.57041C9.24586 1.60304 13.7421 -0.130649 18.815 0.00770092C23.4457 0.133988 28.5568 1.82008 33.6957 5.5515C1.31565 2.45294 10.1908 41.5482 34.8166 34.8973C49.3434 32.1992 56.0761 27.7926 65.2133 31.1317Z" fill="#EB6418"/>
<path d="M176.724 27.8408V9.53101H182.636C184.763 9.53101 186.516 9.90592 187.893 10.6558C189.288 11.4056 190.317 12.4693 190.98 13.8469C191.66 15.207 192 16.8288 192 18.7121C192 20.5605 191.66 22.1735 190.98 23.5511C190.317 24.9112 189.288 25.9662 187.893 26.716C186.516 27.4659 184.763 27.8408 182.636 27.8408H176.724ZM179.863 25.1728H182.479C184.066 25.1728 185.313 24.9199 186.219 24.4142C187.144 23.8911 187.797 23.15 188.181 22.1909C188.582 21.2144 188.783 20.0548 188.783 18.7121C188.783 17.3519 188.582 16.1923 188.181 15.2332C187.797 14.2567 187.144 13.5068 186.219 12.9837C185.313 12.4431 184.066 12.1728 182.479 12.1728H179.863V25.1728Z" fill="white"/>
<path d="M158.878 27.8408L165.574 9.53101H169.079L175.775 27.8408H172.454L167.301 13.193L162.148 27.8408H158.878ZM161.86 23.5249L162.697 21.04H171.721L172.558 23.5249H161.86Z" fill="white"/>
<path d="M141.712 27.8408V9.53101H153.535V12.0682H144.851V17.3257H152.75V19.8106H144.851V25.3036H153.535V27.8408H141.712Z" fill="white"/>
<path d="M130.404 27.8408L123.682 9.53101H127.056L132.314 24.6235L137.65 9.53101H140.972L134.223 27.8408H130.404Z" fill="white"/>
<path d="M109.598 27.8408L116.294 9.53101H119.799L126.496 27.8408H123.174L118.021 13.193L112.868 27.8408H109.598ZM112.58 23.5249L113.417 21.04H122.441L123.278 23.5249H112.58Z" fill="white"/>
<path d="M91.6643 27.8408L86.7991 9.53101H90.1472L93.5738 24.2573L97.5496 9.53101H101.028L104.874 24.2835L108.326 9.53101H111.7L106.704 27.8408H102.99L99.2236 13.9777L95.3524 27.8408H91.6643Z" fill="white"/>
<path d="M73.6408 27.8408V12.0682H68.2525V9.53101H82.1418V12.0682H76.7535V27.8408H73.6408Z" fill="white"/>
<path d="M52.993 27.8408L58.6952 18.5813L52.9407 9.53101H56.5504L60.7093 16.0964L64.5544 9.53101H68.1117L62.4095 18.7121L68.2163 27.8408H64.6067L60.3954 21.197L56.5504 27.8408H52.993Z" fill="white"/>
<path d="M40.3823 27.8408V9.53101H52.2052V12.0682H43.5211V17.3257H51.4205V19.8106H43.5211V25.3036H52.2052V27.8408H40.3823Z" fill="white"/>
<path d="M23.1769 27.8408V9.53101H26.3157L35.1306 22.7664V9.53101H38.2694V27.8408H35.1306L26.3157 14.6316V27.8408H23.1769Z" fill="white"/>
<path d="M189.227 40.6714C188.753 40.6714 188.333 40.5648 187.967 40.3514C187.6 40.1314 187.31 39.8281 187.097 39.4414C186.89 39.0548 186.787 38.5981 186.787 38.0714C186.787 37.5514 186.89 37.0981 187.097 36.7114C187.303 36.3181 187.59 36.0148 187.957 35.8014C188.33 35.5814 188.76 35.4714 189.247 35.4714C189.727 35.4714 190.14 35.5814 190.487 35.8014C190.84 36.0148 191.11 36.2981 191.297 36.6514C191.483 37.0048 191.577 37.3848 191.577 37.7914C191.577 37.8648 191.573 37.9381 191.567 38.0114C191.567 38.0848 191.567 38.1681 191.567 38.2614H187.617C187.637 38.6414 187.723 38.9581 187.877 39.2114C188.037 39.4581 188.233 39.6448 188.467 39.7714C188.707 39.8981 188.96 39.9614 189.227 39.9614C189.573 39.9614 189.863 39.8814 190.097 39.7214C190.33 39.5614 190.5 39.3448 190.607 39.0714H191.437C191.303 39.5314 191.047 39.9148 190.667 40.2214C190.293 40.5214 189.813 40.6714 189.227 40.6714ZM189.227 36.1814C188.827 36.1814 188.47 36.3048 188.157 36.5514C187.85 36.7914 187.673 37.1448 187.627 37.6114H190.747C190.727 37.1648 190.573 36.8148 190.287 36.5614C190 36.3081 189.647 36.1814 189.227 36.1814Z" fill="white" fill-opacity="0.5"/>
<path d="M182.734 38.9914C182.454 38.9914 182.198 38.9548 181.964 38.8814L181.464 39.3514C181.538 39.4048 181.628 39.4514 181.734 39.4914C181.848 39.5248 182.008 39.5581 182.214 39.5914C182.421 39.6181 182.711 39.6481 183.084 39.6814C183.751 39.7281 184.228 39.8814 184.514 40.1414C184.801 40.4014 184.944 40.7414 184.944 41.1614C184.944 41.4481 184.864 41.7214 184.704 41.9814C184.551 42.2414 184.311 42.4548 183.984 42.6214C183.664 42.7881 183.251 42.8714 182.744 42.8714C182.298 42.8714 181.901 42.8114 181.554 42.6914C181.208 42.5781 180.938 42.4014 180.744 42.1614C180.551 41.9281 180.454 41.6314 180.454 41.2714C180.454 41.0848 180.504 40.8814 180.604 40.6614C180.704 40.4481 180.891 40.2448 181.164 40.0514C181.018 39.9914 180.891 39.9281 180.784 39.8614C180.684 39.7881 180.591 39.7081 180.504 39.6214V39.3914L181.354 38.5514C180.961 38.2181 180.764 37.7781 180.764 37.2314C180.764 36.9048 180.841 36.6081 180.994 36.3414C181.148 36.0748 181.371 35.8648 181.664 35.7114C181.958 35.5514 182.314 35.4714 182.734 35.4714C183.021 35.4714 183.281 35.5114 183.514 35.5914H185.344V36.2214L184.414 36.2614C184.608 36.5414 184.704 36.8648 184.704 37.2314C184.704 37.5581 184.624 37.8548 184.464 38.1214C184.311 38.3881 184.088 38.6014 183.794 38.7614C183.508 38.9148 183.154 38.9914 182.734 38.9914ZM182.734 38.3014C183.088 38.3014 183.368 38.2114 183.574 38.0314C183.788 37.8448 183.894 37.5781 183.894 37.2314C183.894 36.8914 183.788 36.6314 183.574 36.4514C183.368 36.2648 183.088 36.1714 182.734 36.1714C182.374 36.1714 182.088 36.2648 181.874 36.4514C181.668 36.6314 181.564 36.8914 181.564 37.2314C181.564 37.5781 181.668 37.8448 181.874 38.0314C182.088 38.2114 182.374 38.3014 182.734 38.3014ZM181.274 41.1914C181.274 41.5248 181.414 41.7714 181.694 41.9314C181.974 42.0981 182.324 42.1814 182.744 42.1814C183.158 42.1814 183.488 42.0914 183.734 41.9114C183.988 41.7314 184.114 41.4914 184.114 41.1914C184.114 40.9781 184.028 40.7914 183.854 40.6314C183.681 40.4781 183.361 40.3881 182.894 40.3614C182.528 40.3348 182.211 40.3014 181.944 40.2614C181.671 40.4081 181.491 40.5648 181.404 40.7314C181.318 40.9048 181.274 41.0581 181.274 41.1914Z" fill="white" fill-opacity="0.5"/>
<path d="M175.845 40.6713C175.352 40.6713 174.918 40.558 174.545 40.3313C174.178 40.1047 173.892 39.7947 173.685 39.4013C173.485 39.008 173.385 38.5613 173.385 38.0613C173.385 37.5613 173.488 37.118 173.695 36.7313C173.902 36.338 174.188 36.0313 174.555 35.8113C174.922 35.5847 175.355 35.4713 175.855 35.4713C176.262 35.4713 176.622 35.5547 176.935 35.7213C177.248 35.888 177.492 36.1213 177.665 36.4213V33.3513H178.505V40.5513H177.745L177.665 39.7313C177.505 39.9713 177.275 40.188 176.975 40.3813C176.675 40.5747 176.298 40.6713 175.845 40.6713ZM175.935 39.9413C176.268 39.9413 176.562 39.8647 176.815 39.7113C177.075 39.5513 177.275 39.3313 177.415 39.0513C177.562 38.7713 177.635 38.4447 177.635 38.0713C177.635 37.698 177.562 37.3713 177.415 37.0913C177.275 36.8113 177.075 36.5947 176.815 36.4413C176.562 36.2813 176.268 36.2013 175.935 36.2013C175.608 36.2013 175.315 36.2813 175.055 36.4413C174.802 36.5947 174.602 36.8113 174.455 37.0913C174.315 37.3713 174.245 37.698 174.245 38.0713C174.245 38.4447 174.315 38.7713 174.455 39.0513C174.602 39.3313 174.802 39.5513 175.055 39.7113C175.315 39.8647 175.608 39.9413 175.935 39.9413Z" fill="white" fill-opacity="0.5"/>
<path d="M167.101 40.5513V33.5513H171.431V34.2413H167.941V36.6813H171.131V37.3613H167.941V39.8613H171.431V40.5513H167.101Z" fill="white" fill-opacity="0.5"/>
<path d="M159.141 40.6714C158.667 40.6714 158.247 40.5648 157.881 40.3514C157.514 40.1314 157.224 39.8281 157.011 39.4414C156.804 39.0548 156.701 38.5981 156.701 38.0714C156.701 37.5514 156.804 37.0981 157.011 36.7114C157.217 36.3181 157.504 36.0148 157.871 35.8014C158.244 35.5814 158.674 35.4714 159.161 35.4714C159.641 35.4714 160.054 35.5814 160.401 35.8014C160.754 36.0148 161.024 36.2981 161.211 36.6514C161.397 37.0048 161.491 37.3848 161.491 37.7914C161.491 37.8648 161.487 37.9381 161.481 38.0114C161.481 38.0848 161.481 38.1681 161.481 38.2614H157.531C157.551 38.6414 157.637 38.9581 157.791 39.2114C157.951 39.4581 158.147 39.6448 158.381 39.7714C158.621 39.8981 158.874 39.9614 159.141 39.9614C159.487 39.9614 159.777 39.8814 160.011 39.7214C160.244 39.5614 160.414 39.3448 160.521 39.0714H161.351C161.217 39.5314 160.961 39.9148 160.581 40.2214C160.207 40.5214 159.727 40.6714 159.141 40.6714ZM159.141 36.1814C158.741 36.1814 158.384 36.3048 158.071 36.5514C157.764 36.7914 157.587 37.1448 157.541 37.6114H160.661C160.641 37.1648 160.487 36.8148 160.201 36.5614C159.914 36.3081 159.561 36.1814 159.141 36.1814Z" fill="white" fill-opacity="0.5"/>
<path d="M152.48 40.5513L150.6 35.5913H151.48L152.97 39.7413L154.47 35.5913H155.33L153.45 40.5513H152.48Z" fill="white" fill-opacity="0.5"/>
<path d="M148.267 34.4913C148.101 34.4913 147.961 34.438 147.847 34.3313C147.741 34.218 147.687 34.078 147.687 33.9113C147.687 33.7513 147.741 33.618 147.847 33.5113C147.961 33.4047 148.101 33.3513 148.267 33.3513C148.427 33.3513 148.564 33.4047 148.677 33.5113C148.791 33.618 148.847 33.7513 148.847 33.9113C148.847 34.078 148.791 34.218 148.677 34.3313C148.564 34.438 148.427 34.4913 148.267 34.4913ZM147.847 40.5513V35.5913H148.687V40.5513H147.847Z" fill="white" fill-opacity="0.5"/>
<path d="M144.95 40.5514C144.497 40.5514 144.14 40.4414 143.88 40.2214C143.62 40.0014 143.49 39.6047 143.49 39.0314V36.3014H142.63V35.5914H143.49L143.6 34.4014H144.33V35.5914H145.79V36.3014H144.33V39.0314C144.33 39.3447 144.393 39.558 144.52 39.6714C144.647 39.778 144.87 39.8314 145.19 39.8314H145.71V40.5514H144.95Z" fill="white" fill-opacity="0.5"/>
<path d="M140.207 34.4913C140.041 34.4913 139.901 34.438 139.787 34.3313C139.681 34.218 139.627 34.078 139.627 33.9113C139.627 33.7513 139.681 33.618 139.787 33.5113C139.901 33.4047 140.041 33.3513 140.207 33.3513C140.367 33.3513 140.504 33.4047 140.617 33.5113C140.731 33.618 140.787 33.7513 140.787 33.9113C140.787 34.078 140.731 34.218 140.617 34.3313C140.504 34.438 140.367 34.4913 140.207 34.4913ZM139.787 40.5513V35.5913H140.627V40.5513H139.787Z" fill="white" fill-opacity="0.5"/>
<path d="M136.89 40.5514C136.437 40.5514 136.08 40.4414 135.82 40.2214C135.56 40.0014 135.43 39.6047 135.43 39.0314V36.3014H134.57V35.5914H135.43L135.54 34.4014H136.27V35.5914H137.73V36.3014H136.27V39.0314C136.27 39.3447 136.334 39.558 136.46 39.6714C136.587 39.778 136.81 39.8314 137.13 39.8314H137.65V40.5514H136.89Z" fill="white" fill-opacity="0.5"/>
<path d="M130.733 40.6714C130.26 40.6714 129.84 40.5648 129.473 40.3514C129.106 40.1314 128.816 39.8281 128.603 39.4414C128.396 39.0548 128.293 38.5981 128.293 38.0714C128.293 37.5514 128.396 37.0981 128.603 36.7114C128.81 36.3181 129.096 36.0148 129.463 35.8014C129.836 35.5814 130.266 35.4714 130.753 35.4714C131.233 35.4714 131.646 35.5814 131.993 35.8014C132.346 36.0148 132.616 36.2981 132.803 36.6514C132.99 37.0048 133.083 37.3848 133.083 37.7914C133.083 37.8648 133.08 37.9381 133.073 38.0114C133.073 38.0848 133.073 38.1681 133.073 38.2614H129.123C129.143 38.6414 129.23 38.9581 129.383 39.2114C129.543 39.4581 129.74 39.6448 129.973 39.7714C130.213 39.8981 130.466 39.9614 130.733 39.9614C131.08 39.9614 131.37 39.8814 131.603 39.7214C131.836 39.5614 132.006 39.3448 132.113 39.0714H132.943C132.81 39.5314 132.553 39.9148 132.173 40.2214C131.8 40.5214 131.32 40.6714 130.733 40.6714ZM130.733 36.1814C130.333 36.1814 129.976 36.3048 129.663 36.5514C129.356 36.7914 129.18 37.1448 129.133 37.6114H132.253C132.233 37.1648 132.08 36.8148 131.793 36.5614C131.506 36.3081 131.153 36.1814 130.733 36.1814Z" fill="white" fill-opacity="0.5"/>
<path d="M121.324 42.7514V35.5914H122.084L122.164 36.4114C122.324 36.1714 122.55 35.9548 122.844 35.7614C123.144 35.5681 123.524 35.4714 123.984 35.4714C124.477 35.4714 124.907 35.5848 125.274 35.8114C125.64 36.0381 125.924 36.3481 126.124 36.7414C126.33 37.1348 126.434 37.5814 126.434 38.0814C126.434 38.5814 126.33 39.0281 126.124 39.4214C125.924 39.8081 125.637 40.1148 125.264 40.3414C124.897 40.5614 124.467 40.6714 123.974 40.6714C123.567 40.6714 123.204 40.5881 122.884 40.4214C122.57 40.2548 122.33 40.0214 122.164 39.7214V42.7514H121.324ZM123.884 39.9414C124.217 39.9414 124.51 39.8648 124.764 39.7114C125.017 39.5514 125.217 39.3314 125.364 39.0514C125.51 38.7714 125.584 38.4448 125.584 38.0714C125.584 37.6981 125.51 37.3714 125.364 37.0914C125.217 36.8114 125.017 36.5948 124.764 36.4414C124.51 36.2814 124.217 36.2014 123.884 36.2014C123.55 36.2014 123.257 36.2814 123.004 36.4414C122.75 36.5948 122.55 36.8114 122.404 37.0914C122.257 37.3714 122.184 37.6981 122.184 38.0714C122.184 38.4448 122.257 38.7714 122.404 39.0514C122.55 39.3314 122.75 39.5514 123.004 39.7114C123.257 39.8648 123.55 39.9414 123.884 39.9414Z" fill="white" fill-opacity="0.5"/>
<path d="M111.478 40.5514V35.5914H112.238L112.298 36.3114C112.458 36.0448 112.672 35.8381 112.938 35.6914C113.205 35.5448 113.505 35.4714 113.838 35.4714C114.232 35.4714 114.568 35.5514 114.848 35.7114C115.135 35.8714 115.355 36.1148 115.508 36.4414C115.682 36.1414 115.918 35.9048 116.218 35.7314C116.525 35.5581 116.855 35.4714 117.208 35.4714C117.802 35.4714 118.275 35.6514 118.628 36.0114C118.982 36.3648 119.158 36.9114 119.158 37.6514V40.5514H118.328V37.7414C118.328 37.2281 118.225 36.8414 118.018 36.5814C117.812 36.3214 117.515 36.1914 117.128 36.1914C116.728 36.1914 116.395 36.3481 116.128 36.6614C115.868 36.9681 115.738 37.4081 115.738 37.9814V40.5514H114.898V37.7414C114.898 37.2281 114.795 36.8414 114.588 36.5814C114.382 36.3214 114.085 36.1914 113.698 36.1914C113.305 36.1914 112.975 36.3481 112.708 36.6614C112.448 36.9681 112.318 37.4081 112.318 37.9814V40.5514H111.478Z" fill="white" fill-opacity="0.5"/>
<path d="M106.92 40.6714C106.454 40.6714 106.034 40.5648 105.66 40.3514C105.287 40.1381 104.99 39.8381 104.77 39.4514C104.557 39.0581 104.45 38.5981 104.45 38.0714C104.45 37.5448 104.56 37.0881 104.78 36.7014C105 36.3081 105.297 36.0048 105.67 35.7914C106.05 35.5781 106.474 35.4714 106.94 35.4714C107.407 35.4714 107.827 35.5781 108.2 35.7914C108.574 36.0048 108.867 36.3081 109.08 36.7014C109.3 37.0881 109.41 37.5448 109.41 38.0714C109.41 38.5981 109.3 39.0581 109.08 39.4514C108.86 39.8381 108.56 40.1381 108.18 40.3514C107.807 40.5648 107.387 40.6714 106.92 40.6714ZM106.92 39.9514C107.207 39.9514 107.474 39.8814 107.72 39.7414C107.967 39.6014 108.167 39.3914 108.32 39.1114C108.474 38.8314 108.55 38.4848 108.55 38.0714C108.55 37.6581 108.474 37.3114 108.32 37.0314C108.174 36.7514 107.977 36.5414 107.73 36.4014C107.484 36.2614 107.22 36.1914 106.94 36.1914C106.654 36.1914 106.387 36.2614 106.14 36.4014C105.894 36.5414 105.694 36.7514 105.54 37.0314C105.387 37.3114 105.31 37.6581 105.31 38.0714C105.31 38.4848 105.387 38.8314 105.54 39.1114C105.694 39.3914 105.89 39.6014 106.13 39.7414C106.377 39.8814 106.64 39.9514 106.92 39.9514Z" fill="white" fill-opacity="0.5"/>
<path d="M99.6831 40.6714C98.9964 40.6714 98.4031 40.5214 97.9031 40.2214C97.4097 39.9147 97.0264 39.4914 96.7531 38.9514C96.4797 38.4047 96.3431 37.7714 96.3431 37.0514C96.3431 36.3381 96.4797 35.7114 96.7531 35.1714C97.0264 34.6247 97.4097 34.1981 97.9031 33.8914C98.4031 33.5847 98.9964 33.4314 99.6831 33.4314C100.483 33.4314 101.133 33.6247 101.633 34.0114C102.14 34.3914 102.463 34.9247 102.603 35.6114H101.673C101.566 35.1781 101.346 34.8314 101.013 34.5714C100.686 34.3047 100.243 34.1714 99.6831 34.1714C99.1831 34.1714 98.7464 34.2881 98.3731 34.5214C97.9997 34.7481 97.7097 35.0781 97.5031 35.5114C97.3031 35.9381 97.2031 36.4514 97.2031 37.0514C97.2031 37.6514 97.3031 38.1681 97.5031 38.6014C97.7097 39.0281 97.9997 39.3581 98.3731 39.5914C98.7464 39.8181 99.1831 39.9314 99.6831 39.9314C100.243 39.9314 100.686 39.8047 101.013 39.5514C101.346 39.2914 101.566 38.9481 101.673 38.5214H102.603C102.463 39.1947 102.14 39.7214 101.633 40.1014C101.133 40.4814 100.483 40.6714 99.6831 40.6714Z" fill="white" fill-opacity="0.5"/>
<path d="M88.4838 40.5514V35.5914H89.2438L89.3138 36.5414C89.4671 36.2148 89.7004 35.9548 90.0138 35.7614C90.3271 35.5681 90.7138 35.4714 91.1738 35.4714V36.3514H90.9438C90.6504 36.3514 90.3804 36.4048 90.1338 36.5114C89.8871 36.6114 89.6904 36.7848 89.5438 37.0314C89.3971 37.2781 89.3238 37.6181 89.3238 38.0514V40.5514H88.4838Z" fill="white" fill-opacity="0.5"/>
<path d="M83.6711 40.6713C83.0844 40.6713 82.6178 40.4946 82.2711 40.1413C81.9244 39.7813 81.7511 39.2313 81.7511 38.4913V35.5913H82.5911V38.4013C82.5911 39.4346 83.0144 39.9513 83.8611 39.9513C84.2944 39.9513 84.6511 39.798 84.9311 39.4913C85.2178 39.178 85.3611 38.7346 85.3611 38.1613V35.5913H86.2011V40.5513H85.4411L85.3811 39.6613C85.2278 39.9746 84.9978 40.2213 84.6911 40.4013C84.3911 40.5813 84.0511 40.6713 83.6711 40.6713Z" fill="white" fill-opacity="0.5"/>
<path d="M77.3031 40.6714C76.8365 40.6714 76.4165 40.5648 76.0431 40.3514C75.6698 40.1381 75.3731 39.8381 75.1531 39.4514C74.9398 39.0581 74.8331 38.5981 74.8331 38.0714C74.8331 37.5448 74.9431 37.0881 75.1631 36.7014C75.3831 36.3081 75.6798 36.0048 76.0531 35.7914C76.4331 35.5781 76.8565 35.4714 77.3231 35.4714C77.7898 35.4714 78.2098 35.5781 78.5831 35.7914C78.9565 36.0048 79.2498 36.3081 79.4631 36.7014C79.6831 37.0881 79.7931 37.5448 79.7931 38.0714C79.7931 38.5981 79.6831 39.0581 79.4631 39.4514C79.2431 39.8381 78.9431 40.1381 78.5631 40.3514C78.1898 40.5648 77.7698 40.6714 77.3031 40.6714ZM77.3031 39.9514C77.5898 39.9514 77.8565 39.8814 78.1031 39.7414C78.3498 39.6014 78.5498 39.3914 78.7031 39.1114C78.8565 38.8314 78.9331 38.4848 78.9331 38.0714C78.9331 37.6581 78.8565 37.3114 78.7031 37.0314C78.5565 36.7514 78.3598 36.5414 78.1131 36.4014C77.8665 36.2614 77.6031 36.1914 77.3231 36.1914C77.0365 36.1914 76.7698 36.2614 76.5231 36.4014C76.2765 36.5414 76.0765 36.7514 75.9231 37.0314C75.7698 37.3114 75.6931 37.6581 75.6931 38.0714C75.6931 38.4848 75.7698 38.8314 75.9231 39.1114C76.0765 39.3914 76.2731 39.6014 76.5131 39.7414C76.7598 39.8814 77.0231 39.9514 77.3031 39.9514Z" fill="white" fill-opacity="0.5"/>
<path d="M71.0113 40.5513V37.8913L68.7313 33.5513H69.6813L71.4313 37.0913L73.1813 33.5513H74.1213L71.8513 37.8913V40.5513H71.0113Z" fill="white" fill-opacity="0.5"/>
</svg>
